<svg width="64" height="64" viewBox="0 0 64 64" fill="none" xmlns="http://www.w3.org/2000/svg">
<g clip-path="url(#clip0_400_15176)">
<path d="M44.1691 31.657C44.8941 31.657 45.5251 31.657 46.2671 31.657C45.9321 40.064 45.5991 48.427 45.2651 56.831C47.3361 56.831 49.3621 56.831 51.4541 56.831C51.3751 55.244 51.3021 53.676 51.2181 52.109C50.9281 46.73 50.6331 41.35 50.3431 35.971C50.0641 30.81 49.7821 25.65 49.5201 20.488C49.4941 19.982 49.3351 19.724 48.8271 19.566C46.5101 18.849 44.2061 18.088 41.8371 17.323C41.2641 18.833 40.5621 20.288 40.1851 21.822C39.9551 22.76 40.2171 23.821 40.2711 24.826C40.5621 30.227 40.8551 35.629 41.1501 41.03C41.4391 46.322 41.7301 51.613 42.0201 56.905C42.0211 56.927 42.0231 56.949 42.0251 56.971C42.1501 58.743 41.9391 58.973 40.1891 58.973C39.0951 58.973 38.0011 58.973 36.8071 58.973C36.8071 59.907 36.8081 60.817 36.8071 61.727C36.8051 62.848 36.4791 63.179 35.3661 63.179C25.8161 63.18 16.2661 63.18 6.71513 63.179C5.59113 63.179 5.26413 62.854 5.26113 61.741C5.25913 60.846 5.26113 59.952 5.26113 58.973C4.00113 58.973 2.78313 58.973 1.56513 58.973C0.284134 58.972 -0.0458665 58.642 0.0221335 57.379C0.438134 49.726 0.862134 42.072 1.28013 34.419C1.55413 29.39 1.82413 24.36 2.09313 19.33C2.14213 18.406 2.28013 18.204 3.15513 17.916C5.62613 17.102 8.09813 16.292 10.5701 15.48C10.7131 15.433 10.8521 15.375 11.0491 15.3C10.9211 14.98 10.8001 14.685 10.6851 14.387C10.3251 13.452 10.5991 12.91 11.5691 12.69C13.7021 12.207 15.8381 11.737 17.9721 11.261C18.6121 11.118 19.2521 10.975 19.9811 10.811C19.9811 9.92901 19.9811 9.03801 19.9811 8.14801C19.9811 6.61601 20.1941 6.38501 21.7121 6.40301C22.4721 6.41201 23.1461 6.25901 23.6601 5.65801C23.7121 5.59701 23.7451 5.52101 23.8301 5.38001C23.5801 5.36601 23.3951 5.34601 23.2111 5.34601C17.3841 5.34401 11.5581 5.34901 5.73113 5.33601C5.30913 5.33601 5.09413 5.42701 4.91813 5.86001C4.29913 7.38501 3.12513 8.25301 1.49713 8.47601C0.485134 8.61501 0.00613349 8.18201 0.00413349 7.17001C-0.000866512 5.24201 -0.00186651 3.31501 0.00413349 1.38701C0.00713349 0.413014 0.480134 -0.0179858 1.46213 0.109014C3.32213 0.349014 4.50713 1.42601 5.12213 3.20401C11.3331 3.20401 17.5381 3.20401 23.8181 3.20401C23.4081 2.48801 22.8091 2.21201 22.0801 2.19801C21.0551 2.17901 20.0301 2.19301 18.9681 2.19301C18.9681 1.49201 18.9681 0.843014 18.9681 0.0910142C20.4871 0.177014 22.0411 -0.164986 23.5451 0.364014C24.7241 0.779014 25.5061 1.63401 26.0031 2.77601C26.0861 2.96701 26.3281 3.22101 26.4991 3.22301C29.4321 3.25001 32.3651 3.24301 35.3081 3.24301C35.0811 2.60101 34.4911 2.21301 33.6741 2.19901C32.6471 2.18101 31.6191 2.19501 30.5441 2.19501C30.5441 1.49801 30.5441 0.834014 30.5441 0.160014C31.8271 0.160014 33.1241 0.0400142 34.3881 0.191014C35.9411 0.376014 36.9651 1.38201 37.5851 2.81201C37.6651 2.99601 37.9261 3.22501 38.1041 3.22601C42.7261 3.24801 47.3471 3.24201 51.9691 3.23901C52.0271 3.23901 52.0851 3.21201 52.2061 3.18201C51.7901 2.49401 51.1951 2.21001 50.4621 2.19801C49.4381 2.18201 48.4141 2.19401 47.3561 2.19401C47.3561 1.48601 47.3561 0.838014 47.3561 0.00201416C48.8261 0.101014 50.3171 0.0700142 51.7531 0.337014C53.0481 0.578014 53.9001 1.56201 54.3731 2.79601C54.5071 3.14601 54.6641 3.26301 55.0311 3.25301C55.9931 3.22701 56.9571 3.24401 57.9401 3.24401C58.0401 3.01001 58.1241 2.78701 58.2281 2.57301C58.9581 1.06701 60.1551 0.224014 61.8261 0.101014C62.6291 0.0420142 63.0831 0.464014 63.0891 1.25401C63.1021 3.29101 63.1031 5.32801 63.0881 7.36501C63.0821 8.11901 62.6291 8.54301 61.8641 8.49101C60.1081 8.37101 58.8561 7.48501 58.1791 5.86501C58.0001 5.43601 57.7951 5.31901 57.3671 5.33601C56.5581 5.36801 55.7461 5.32501 54.9371 5.36201C54.7591 5.37001 54.4991 5.54601 54.4331 5.70801C53.7211 7.44601 52.4181 8.34901 50.5251 8.52701C50.5251 9.27102 50.5251 10.022 50.5251 10.816C53.1451 11.401 55.7591 12.022 58.3911 12.552C59.2791 12.731 59.8061 13.139 60.1851 13.954C61.0241 15.758 61.9521 17.521 62.8351 19.305C63.3841 20.415 62.9591 21.109 61.7351 21.118C60.8591 21.124 59.9831 21.122 59.1071 21.126C59.0651 21.126 59.0241 21.144 58.8891 21.175C58.8891 21.406 58.8891 21.659 58.8891 21.912C58.8891 28.856 58.8891 35.799 58.8891 42.743C58.8891 43.947 58.5821 44.252 57.3751 44.253C56.1531 44.254 54.9311 44.253 53.6701 44.253C53.6701 43.555 53.6701 42.906 53.6701 42.184C54.6641 42.184 55.6811 42.184 56.7411 42.184C56.7411 35.139 56.7411 28.167 56.7411 21.157C55.0611 21.157 53.3891 21.157 51.6461 21.157C51.6811 21.75 51.7161 22.312 51.7461 22.874C52.0261 28.122 52.3021 33.371 52.5861 38.619C52.9161 44.72 53.2531 50.821 53.5871 56.921C53.5941 57.052 53.6041 57.183 53.6101 57.315C53.6761 58.667 53.3791 58.974 52.0031 58.974C49.5061 58.974 47.0091 58.976 44.5121 58.973C43.4511 58.972 43.0851 58.608 43.1271 57.543C43.4101 50.453 43.7011 43.363 43.9881 36.272C44.0491 34.744 44.1071 33.216 44.1691 31.657ZM34.6701 58.973C34.0101 58.973 33.3811 58.982 32.7521 58.971C31.9411 58.956 31.5401 58.555 31.5561 57.745C31.5751 56.826 31.6341 55.907 31.6701 54.988C31.9501 47.877 32.2281 40.766 32.5101 33.655C32.5371 32.984 32.5871 32.314 32.6241 31.674C33.3361 31.674 33.9841 31.674 34.6991 31.674C34.3641 40.096 34.0311 48.458 33.6971 56.827C35.8061 56.827 37.8311 56.827 39.8891 56.827C39.7651 54.423 39.6471 52.062 39.5201 49.702C39.1851 43.493 38.8461 37.284 38.5101 31.075C38.3181 27.533 38.1221 23.992 37.9491 20.449C37.9251 19.963 37.7661 19.722 37.2821 19.578C35.8571 19.156 34.4501 18.676 33.0351 18.219C32.1051 17.919 31.1751 17.619 30.2221 17.311C30.1161 17.565 30.0311 17.764 29.9501 17.965C29.0871 20.115 28.2291 22.268 27.3601 24.416C26.9511 25.426 26.2701 25.595 25.4141 24.914C24.5061 24.192 23.6031 23.463 22.6961 22.74C22.5231 22.602 22.3411 22.474 22.1241 22.313C22.1241 35.293 22.1241 48.16 22.1241 61.028C26.3331 61.028 30.5011 61.028 34.6701 61.028C34.6701 60.333 34.6701 59.684 34.6701 58.973ZM11.8451 17.287C9.46013 18.063 7.16113 18.834 4.84513 19.548C4.30513 19.715 4.14013 19.983 4.11313 20.51C3.80513 26.502 3.48113 32.492 3.15713 38.483C2.91313 43.009 2.66213 47.534 2.41813 52.06C2.33213 53.646 2.25813 55.234 2.17813 56.825C4.28213 56.825 6.30713 56.825 8.36713 56.825C8.03313 48.433 7.70013 40.084 7.36513 31.675C8.09713 31.675 8.75913 31.675 9.44813 31.675C9.46113 31.912 9.47513 32.128 9.48413 32.343C9.68613 37.2 9.88913 42.057 10.0871 46.915C10.2321 50.481 10.3751 54.048 10.5071 57.615C10.5431 58.59 10.1591 58.966 9.18013 58.973C8.59413 58.977 8.00913 58.974 7.40313 58.974C7.40313 59.703 7.40313 60.367 7.40313 61.029C11.6121 61.029 15.7811 61.029 19.9371 61.029C19.9371 48.12 19.9371 35.258 19.9371 22.395C19.8731 22.398 19.8471 22.391 19.8351 22.401C18.7531 23.256 17.6771 24.119 16.5891 24.966C15.7961 25.584 15.1191 25.395 14.7211 24.464C14.6691 24.343 14.6251 24.22 14.5761 24.098C13.6741 21.847 12.7721 19.597 11.8451 17.287ZM51.5641 18.977C54.4771 18.977 57.3561 18.977 60.3191 18.977C59.6541 17.647 59.0381 16.371 58.3711 15.122C58.2401 14.877 57.9321 14.636 57.6631 14.572C55.5781 14.077 53.4711 13.674 51.3951 13.144C50.0681 12.805 48.7951 12.736 47.4771 13.153C46.6721 13.408 45.8241 13.527 44.9231 13.723C44.7701 13.026 44.6281 12.379 44.4771 11.691C45.8081 11.388 47.0771 11.099 48.3721 10.804C48.3721 10.027 48.3721 9.30701 48.3721 8.58601C48.3721 6.46701 48.3721 6.46801 50.4531 6.39401C51.1871 6.36801 51.7851 6.09801 52.1731 5.46201C52.1301 5.40001 52.1181 5.36801 52.1061 5.36801C47.4191 5.35901 42.7331 5.35001 38.0461 5.35801C37.9011 5.35801 37.6751 5.50901 37.6241 5.64201C36.9301 7.44801 35.5831 8.35701 33.6991 8.53201C33.6991 9.31501 33.6991 10.068 33.6991 10.815C36.5421 11.45 39.3391 12.07 42.1321 12.703C42.9921 12.898 43.2741 13.438 42.9881 14.27C42.8691 14.615 42.7411 14.956 42.6061 15.327C42.8091 15.405 42.9661 15.473 43.1291 15.526C45.5201 16.3 47.9101 17.08 50.3061 17.84C50.9201 18.036 51.4591 18.275 51.5641 18.977ZM29.0621 14.513C26.8531 14.024 24.7461 13.535 22.6271 13.102C21.8941 12.952 21.1121 12.797 20.3891 12.9C19.0071 13.096 17.6511 13.473 16.2861 13.78C15.2061 14.023 14.1281 14.273 13.0121 14.529C14.0971 17.238 15.1501 19.868 16.2301 22.565C17.2341 21.758 18.1791 20.999 19.1761 20.197C18.9061 20.027 18.7271 19.909 18.5441 19.799C17.4761 19.155 16.4011 18.522 15.3401 17.865C14.7161 17.479 14.4851 16.842 14.9071 16.378C15.6201 15.595 16.4421 14.913 17.1781 14.226C17.6201 14.637 18.0971 15.08 18.6021 15.55C18.2201 15.951 17.8681 16.321 17.4921 16.716C18.6051 17.382 19.6511 18.019 20.7111 18.632C20.8571 18.716 21.1161 18.77 21.2421 18.698C22.3521 18.061 23.4441 17.392 24.7021 16.637C24.2161 16.27 23.8151 15.966 23.4391 15.682C24.0051 15.091 24.4661 14.609 24.9281 14.126C25.0111 14.181 25.0721 14.209 25.1171 14.254C25.7081 14.84 26.3041 15.421 26.8841 16.019C27.5821 16.739 27.4861 17.418 26.6141 17.948C25.6231 18.551 24.6231 19.138 23.6301 19.737C23.3991 19.877 23.1791 20.035 22.9051 20.218C23.9161 21.025 24.8541 21.774 25.8411 22.562C26.9191 19.866 27.9731 17.234 29.0621 14.513ZM26.1511 5.37401C25.4901 7.32801 24.1311 8.35901 22.1151 8.53501C22.1151 9.30701 22.1151 10.043 22.1151 10.797C22.2201 10.826 22.3001 10.851 22.3821 10.87C25.1121 11.481 27.8441 12.085 30.5721 12.705C31.4311 12.9 31.7161 13.449 31.4201 14.273C31.2971 14.616 31.1611 14.953 31.0111 15.344C31.9661 15.653 32.8711 15.946 33.8081 16.249C34.2781 15.268 34.7281 14.331 35.2121 13.321C34.2841 13.11 33.4381 12.921 32.5951 12.723C31.7861 12.533 31.5531 12.237 31.5491 11.392C31.5441 10.385 31.5731 9.37701 31.5421 8.37101C31.4941 6.84001 31.6051 6.27801 33.5141 6.39501C33.6441 6.40301 33.7791 6.40301 33.9071 6.37901C34.5201 6.26501 35.0411 6.01301 35.3941 5.37401C32.2761 5.37401 29.2411 5.37401 26.1511 5.37401ZM39.3091 18.035C39.7611 16.843 40.1941 15.702 40.6441 14.514C39.4841 14.26 38.4251 14.028 37.3271 13.788C36.8261 14.833 36.3421 15.842 35.8321 16.907C37.0191 17.292 38.1301 17.653 39.3091 18.035ZM2.13913 6.09401C2.87913 5.55701 3.21613 4.92301 3.14013 4.10801C3.07913 3.44701 2.79413 2.90001 2.13913 2.54401C2.13913 3.74501 2.13913 4.86401 2.13913 6.09401ZM60.9681 2.52901C59.5961 3.50001 59.6291 5.34801 60.9681 5.98701C60.9681 4.85501 60.9681 3.73301 60.9681 2.52901Z" fill="black"/>
<path d="M38.8745 54.738C38.1945 54.738 37.5475 54.738 36.8535 54.738C36.8535 54.072 36.8535 53.41 36.8535 52.705C37.5145 52.705 38.1765 52.705 38.8745 52.705C38.8745 53.367 38.8745 54.014 38.8745 54.738Z" fill="black"/>
<path d="M17.8643 29.573C17.8643 30.264 17.8643 30.895 17.8643 31.58C17.1973 31.58 16.5343 31.58 15.8223 31.58C15.8223 30.941 15.8223 30.279 15.8223 29.573C16.4793 29.573 17.1423 29.573 17.8643 29.573Z" fill="black"/>
<path d="M15.8086 40.073C16.4956 40.073 17.1426 40.073 17.8336 40.073C17.8336 40.746 17.8336 41.408 17.8336 42.11C17.1666 42.11 16.5036 42.11 15.8086 42.11C15.8086 41.441 15.8086 40.794 15.8086 40.073Z" fill="black"/>
<path d="M17.8336 52.632C17.1326 52.632 16.4856 52.632 15.8066 52.632C15.8066 51.955 15.8066 51.308 15.8066 50.61C16.4626 50.61 17.1256 50.61 17.8336 50.61C17.8336 51.262 17.8336 51.924 17.8336 52.632Z" fill="black"/>
<path d="M3.20312 52.694C3.89912 52.694 4.54613 52.694 5.22713 52.694C5.22713 53.37 5.22713 54.017 5.22713 54.716C4.57613 54.716 3.91312 54.716 3.20312 54.716C3.20312 54.069 3.20312 53.406 3.20312 52.694Z" fill="black"/>
</g>
<defs>
<clipPath id="clip0_400_15176">
<rect width="63.099" height="63.179" fill="white"/>
</clipPath>
</defs>
</svg>
