<svg width="43" height="46" viewBox="0 0 43 46" fill="none" xmlns="http://www.w3.org/2000/svg">
<g clip-path="url(#clip0_400_15230)">
<path d="M7.80502 7.99289C8.06702 7.99289 8.26002 7.99289 8.45302 7.99289C17.365 7.99289 26.277 7.99489 35.188 7.99189C37.068 7.99089 38.848 8.34289 40.408 9.46089C41.639 10.3429 42.273 11.5009 42.268 13.0679C42.24 21.2949 42.224 29.5229 42.276 37.7499C42.29 39.9289 41.276 41.3109 39.449 42.2459C38.089 42.9419 36.619 43.0779 35.122 43.0029C34.653 42.9789 34.462 42.7009 34.461 42.0999C34.457 40.1779 34.459 38.2549 34.459 36.3329C34.459 35.9279 34.459 35.5229 34.459 34.9939C33.569 35.0499 32.72 35.0959 31.872 35.1599C31.584 35.1819 31.433 35.3569 31.347 35.6469C31.227 36.0509 31.093 36.4659 30.873 36.8189C30.609 37.2419 30.668 37.5809 30.904 37.9759C31.162 38.4079 31.354 38.8789 31.6 39.3189C31.833 39.7349 31.79 40.0789 31.445 40.4149C30.722 41.1199 30.011 41.8379 29.301 42.5569C28.997 42.8649 28.675 42.9259 28.288 42.7209C27.756 42.4389 27.209 42.1849 26.682 41.8949C26.418 41.7499 26.2 41.7029 25.92 41.8769C25.647 42.0479 25.341 42.2089 25.03 42.2659C24.316 42.3959 24.014 42.8419 23.875 43.4999C23.788 43.9109 23.61 44.3019 23.493 44.7079C23.377 45.1099 23.116 45.3079 22.71 45.3099C21.651 45.3149 20.592 45.3159 19.533 45.3079C19.149 45.3049 18.897 45.1109 18.78 44.7329C18.593 44.1269 18.412 43.5169 18.18 42.9279C18.105 42.7369 17.902 42.5539 17.712 42.4579C17.263 42.2329 16.794 42.0389 16.317 41.8799C16.116 41.8129 15.845 41.7969 15.658 41.8779C15.091 42.1219 14.546 42.4169 14.001 42.7079C13.597 42.9239 13.266 42.8639 12.947 42.5389C12.24 41.8169 11.525 41.1039 10.804 40.3959C10.477 40.0749 10.432 39.7439 10.652 39.3419C10.948 38.7999 11.235 38.2499 11.484 37.6849C11.561 37.5109 11.553 37.2579 11.491 37.0719C11.358 36.6729 11.151 36.2979 11 35.9039C10.728 35.1959 10.534 35.0519 9.75402 35.0389C8.41902 35.0169 7.08002 35.0489 5.74902 34.9589C4.27902 34.8599 2.91402 34.3799 1.72802 33.4759C0.60202 32.6179 -0.00398033 31.5179 1.96753e-05 30.0489C0.0220197 21.8539 0.0110197 13.6589 0.0110197 5.46389C0.0110197 2.91789 1.02702 1.44089 3.40702 0.521895C4.58402 0.0678946 5.81202 -0.0341054 7.05702 0.00789458C7.59002 0.0258946 7.80302 0.307895 7.80402 0.939895C7.80802 3.07389 7.80602 5.20889 7.80602 7.34289C7.80502 7.53789 7.80502 7.73189 7.80502 7.99289ZM8.02102 32.1349C7.88702 32.1239 7.77602 32.1109 7.66602 32.1079C6.43402 32.0709 5.80502 31.4359 5.79902 30.2189C5.79702 29.7139 5.79402 29.2089 5.80002 28.7039C5.81202 27.5889 6.47902 26.9069 7.59402 26.8879C8.39202 26.8749 9.19002 26.8849 9.98802 26.8849C10.455 26.8849 10.921 26.8849 11.298 26.8849C11.348 25.8059 11.29 24.7839 11.461 23.8009C12.093 20.1639 14.143 17.5689 17.574 16.2299C21.046 14.8739 24.313 15.4509 27.291 17.7009C27.516 17.8709 27.84 17.9919 28.118 17.9939C30.969 18.0149 33.82 18.0059 36.671 18.0079C36.866 18.0079 37.108 17.9609 37.244 18.0559C37.458 18.2049 37.69 18.4329 37.753 18.6699C37.841 19.0019 37.616 19.2629 37.268 19.3439C37.081 19.3869 36.88 19.3859 36.686 19.3859C34.307 19.3889 31.929 19.3879 29.55 19.3879C29.381 19.3879 29.212 19.3879 28.932 19.3879C29.778 20.5449 30.337 21.7069 30.663 22.9799C30.989 24.2529 30.996 25.5439 30.86 26.8849C31.089 26.8849 31.265 26.8849 31.441 26.8849C32.516 26.8849 33.592 26.8749 34.667 26.8879C35.782 26.9009 36.454 27.5849 36.466 28.6979C36.472 29.2679 36.48 29.8389 36.463 30.4079C36.434 31.3859 35.778 32.0479 34.799 32.1029C34.624 32.1129 34.448 32.1039 34.257 32.1039C34.257 32.6449 34.257 33.1369 34.257 33.6869C36.629 33.5759 38.925 33.6789 40.884 35.3989C40.884 35.1039 40.884 34.9299 40.884 34.7549C40.884 27.6029 40.857 20.4509 40.905 13.2999C40.915 11.8029 40.255 10.8749 39.028 10.2139C37.852 9.57989 36.581 9.36289 35.259 9.36289C25.696 9.36489 16.133 9.37289 6.57002 9.34889C5.68602 9.34789 4.76802 9.25389 3.92602 9.00189C3.04402 8.73789 2.23402 8.23289 1.38102 7.82689C1.38102 7.87389 1.38102 7.99689 1.38102 8.11989C1.38102 15.4669 1.38502 22.8149 1.37602 30.1619C1.37502 31.0349 1.73902 31.7049 2.38602 32.2329C4.03902 33.5809 5.99202 33.7309 8.02102 33.6509C8.02102 33.1209 8.02102 32.6389 8.02102 32.1349ZM14.551 32.1439C12.833 32.1439 11.149 32.1439 9.41802 32.1439C9.41802 32.4209 9.44202 32.6649 9.41202 32.9019C9.36602 33.2729 9.49502 33.4549 9.87102 33.5469C10.391 33.6739 10.914 33.8269 11.396 34.0529C11.656 34.1749 11.908 34.4369 12.035 34.6989C12.382 35.4129 12.688 36.1499 12.95 36.8989C13.046 37.1729 13.059 37.5399 12.959 37.8069C12.753 38.3509 12.455 38.8629 12.173 39.3759C12.05 39.5989 12.07 39.7429 12.259 39.9179C12.664 40.2949 13.061 40.6829 13.433 41.0929C13.63 41.3109 13.787 41.2899 14.017 41.1639C14.516 40.8899 15.013 40.5999 15.543 40.4019C15.813 40.3009 16.179 40.3049 16.453 40.4009C17.202 40.6629 17.917 41.0199 18.662 41.2959C19 41.4209 19.215 41.6009 19.319 41.9449C19.489 42.5049 19.692 43.0549 19.856 43.6159C19.929 43.8659 20.056 43.9469 20.308 43.9399C20.845 43.9239 21.384 43.9169 21.92 43.9419C22.225 43.9559 22.349 43.8409 22.426 43.5579C22.568 43.0409 22.762 42.5389 22.914 42.0239C23.03 41.6309 23.261 41.4119 23.659 41.2719C24.377 41.0209 25.081 40.7179 25.771 40.3959C26.113 40.2359 26.407 40.2069 26.741 40.3839C27.343 40.7039 27.954 41.0049 28.486 41.2749C29.072 40.6929 29.622 40.1469 30.19 39.5839C29.91 39.0329 29.619 38.4339 29.303 37.8469C29.124 37.5149 29.134 37.2249 29.295 36.8789C29.63 36.1589 29.888 35.4029 30.23 34.6859C30.349 34.4359 30.584 34.1739 30.831 34.0659C31.379 33.8259 31.972 33.6909 32.538 33.4869C32.66 33.4429 32.817 33.2979 32.831 33.1839C32.87 32.8499 32.845 32.5089 32.845 32.1429C31.099 32.1429 29.403 32.1429 27.708 32.1429C27.565 36.2799 24.409 38.7309 21.201 38.7689C17.992 38.8089 14.699 36.3729 14.551 32.1439ZM12.85 26.8549C18.397 26.8549 23.911 26.8549 29.419 26.8549C30.33 22.3909 27.225 18.3959 23.956 17.4609C23.956 17.6489 23.956 17.8249 23.956 17.9999C23.956 19.7589 23.961 21.5179 23.954 23.2769C23.95 24.3969 23.282 25.0659 22.16 25.0819C21.476 25.0909 20.792 25.0909 20.108 25.0819C18.983 25.0669 18.316 24.3999 18.311 23.2799C18.305 21.7169 18.309 20.1529 18.309 18.5899C18.309 18.2179 18.309 17.8469 18.309 17.4679C14.849 18.1189 11.85 23.2869 12.85 26.8549ZM21.157 28.2619C17.247 28.2619 13.337 28.2619 9.42702 28.2619C8.84102 28.2619 8.25402 28.2689 7.66802 28.2599C7.32002 28.2539 7.15702 28.3969 7.16802 28.7549C7.18102 29.1459 7.17002 29.5369 7.17102 29.9279C7.17102 30.7389 7.17102 30.7389 7.98602 30.7389C16.751 30.7389 25.515 30.7389 34.28 30.7389C34.394 30.7389 34.508 30.7359 34.622 30.7389C34.945 30.7479 35.103 30.6019 35.096 30.2689C35.087 29.8459 35.095 29.4219 35.094 28.9979C35.093 28.2789 35.077 28.2629 34.352 28.2619C29.954 28.2619 25.555 28.2619 21.157 28.2619ZM26.279 32.1519C22.825 32.1519 19.404 32.1519 15.986 32.1519C15.843 34.9349 18.283 37.3989 21.135 37.3989C23.983 37.3999 26.41 34.9439 26.279 32.1519ZM6.40702 1.37089C6.02702 1.39689 5.70402 1.40289 5.38402 1.44389C4.21402 1.59289 3.13802 1.97389 2.26402 2.79989C1.30902 3.70289 1.11802 4.90289 1.74602 5.93889C2.53302 7.23689 4.88302 8.24489 6.40702 7.92389C6.40702 5.76989 6.40702 3.61289 6.40702 1.37089ZM35.869 35.0479C35.869 37.2599 35.869 39.4309 35.869 41.6369C37.489 41.6349 38.948 41.2829 40.098 40.1219C41.163 39.0469 41.16 37.6249 40.093 36.5539C38.939 35.3959 37.482 35.0469 35.869 35.0479ZM22.583 20.3029C22.583 19.3429 22.572 18.3829 22.589 17.4229C22.595 17.1109 22.496 16.9749 22.18 16.9789C21.467 16.9879 20.753 16.9859 20.04 16.9839C19.775 16.9829 19.674 17.0939 19.676 17.3679C19.685 19.3199 19.686 21.2729 19.677 23.2249C19.675 23.5879 19.831 23.7169 20.177 23.7109C20.795 23.6989 21.414 23.6899 22.032 23.7139C22.466 23.7309 22.599 23.5489 22.59 23.1339C22.569 22.1909 22.583 21.2469 22.583 20.3029Z" fill="black"/>
<path d="M25.1641 12.239C29.0071 12.239 32.8511 12.239 36.6941 12.239C37.4511 12.239 37.7691 12.442 37.7741 12.92C37.7791 13.404 37.4551 13.619 36.7101 13.619C28.9911 13.62 21.2711 13.619 13.5521 13.619C12.8071 13.619 12.4661 13.404 12.4591 12.937C12.4521 12.466 12.8001 12.239 13.5351 12.239C17.4121 12.239 21.2881 12.239 25.1641 12.239Z" fill="black"/>
<path d="M6.69012 13.8149C7.61712 12.7349 8.45912 11.7219 9.34412 10.7499C9.51912 10.5579 9.87912 10.4109 10.1321 10.4399C10.6501 10.4999 10.7901 11.1259 10.4061 11.5839C9.56012 12.5919 8.69612 13.5859 7.84012 14.5849C7.67112 14.7819 7.50912 14.9869 7.33212 15.1769C6.98112 15.5539 6.59612 15.5769 6.22912 15.2249C5.72512 14.7409 5.23212 14.2459 4.74412 13.7449C4.41512 13.4069 4.40112 12.9869 4.68812 12.7079C4.98712 12.4169 5.36112 12.4349 5.72112 12.7879C6.04512 13.1079 6.34612 13.4489 6.69012 13.8149Z" fill="black"/>
<path d="M6.69976 19.5729C7.50576 18.6339 8.25576 17.7589 9.00576 16.8839C9.12176 16.7479 9.23576 16.6099 9.35676 16.4789C9.69176 16.1149 10.0698 16.0549 10.3828 16.3119C10.7128 16.5819 10.7238 16.9819 10.3828 17.3849C9.51076 18.4139 8.62876 19.4339 7.75076 20.4579C7.59176 20.6429 7.44376 20.8389 7.27076 21.0089C6.96376 21.3109 6.58476 21.3329 6.27176 21.0359C5.72976 20.5209 5.20176 19.9909 4.68676 19.4499C4.39976 19.1479 4.39276 18.7909 4.68576 18.4909C4.98276 18.1859 5.33776 18.2009 5.64176 18.4859C5.99776 18.8179 6.32276 19.1819 6.69976 19.5729Z" fill="black"/>
</g>
<defs>
<clipPath id="clip0_400_15230">
<rect width="42.276" height="45.313" fill="white"/>
</clipPath>
</defs>
</svg>
