<svg width="55" height="40" viewBox="0 0 55 40" fill="none" xmlns="http://www.w3.org/2000/svg">
<g clip-path="url(#clip0_400_15034)">
<path d="M5.7277 19.1291C5.7277 18.8339 5.7277 18.6181 5.7277 18.4024C5.7277 13.5297 5.72683 8.65702 5.72813 3.78435C5.72871 1.43178 7.16623 0.000579666 9.52775 0.00043475C21.5018 -0.000144917 33.4758 -0.000144917 45.45 0.00043475C47.8483 0.000579666 49.2697 1.42178 49.2711 3.81884C49.2723 5.81144 49.2714 7.8039 49.2714 9.7965C49.2714 9.99098 49.2714 10.1855 49.2714 10.4347C49.8783 10.4347 50.4356 10.4282 50.993 10.4359C52.9636 10.4631 54.4877 11.953 54.4909 13.9178C54.5029 21.4531 54.5033 28.9885 54.4904 36.5239C54.4871 38.4832 52.9558 39.9907 50.9812 39.9925C40.8939 40.0012 30.8068 39.9975 20.7195 39.9952C19.9749 39.9951 19.6688 39.6809 19.6631 38.9328C19.6574 38.172 19.6545 37.4112 19.6643 36.6505C19.6728 35.9752 19.992 35.6589 20.6727 35.6519C21.5421 35.6431 22.4119 35.6497 23.3287 35.6497C23.4719 35.082 23.611 34.5293 23.76 33.9387C21.2201 33.9387 18.7273 33.9387 16.1783 33.9387C16.1783 34.751 16.1811 35.5427 16.1777 36.3343C16.1686 38.5094 14.6955 39.9913 12.5264 39.9957C9.73255 40.0013 6.9385 40.0016 4.1446 39.9955C2.00066 39.9909 0.507402 38.5103 0.5045 36.3795C0.498549 31.8329 0.498403 27.2863 0.504645 22.7397C0.507548 20.6109 2.00371 19.1384 4.14997 19.1293C4.65435 19.1274 5.15902 19.1291 5.7277 19.1291ZM47.4877 10.4341C47.5113 10.3194 47.5246 10.2846 47.5246 10.2498C47.5269 8.09417 47.5294 5.93868 47.5291 3.78305C47.5288 2.41098 46.8639 1.73943 45.5046 1.73943C33.494 1.73885 21.4834 1.73871 9.47288 1.73958C8.14843 1.73972 7.47017 2.42069 7.46988 3.74986C7.46872 8.67688 7.46944 13.6039 7.46944 18.5311C7.46944 18.7218 7.46944 18.9125 7.46944 19.1293C9.23412 19.1293 10.9198 19.1219 12.6054 19.1312C14.6727 19.1426 16.1634 20.636 16.1763 22.707C16.1856 24.2103 16.1782 25.714 16.1783 27.2173C16.1783 27.4089 16.1783 27.6005 16.1783 27.7806C21.4459 27.7806 26.6405 27.7806 31.854 27.7806C31.854 27.5205 31.854 27.3037 31.854 27.0871C31.854 22.7939 31.853 18.5009 31.8544 14.2078C31.8553 11.8839 33.2966 10.4357 35.6111 10.4346C39.3667 10.4325 43.1222 10.434 46.8778 10.434C47.0736 10.4341 47.2696 10.4341 47.4877 10.4341ZM14.4363 29.5888C14.4363 27.2902 14.4425 24.9917 14.4335 22.6932C14.4293 21.6111 13.7026 20.8893 12.6304 20.869C12.3948 20.8645 12.1482 20.8258 11.927 20.882C11.7592 20.9246 11.5486 21.0622 11.4871 21.2111C11.2736 21.7276 11.1188 22.2682 10.9375 22.7983C10.786 23.2416 10.4827 23.4779 10.0024 23.4768C8.89666 23.4743 7.79094 23.4737 6.68508 23.4772C6.2061 23.4786 5.89795 23.25 5.74555 22.8052C5.56397 22.2753 5.39444 21.7411 5.20503 21.214C5.16091 21.0911 5.08122 20.9264 4.97788 20.8877C3.64472 20.3889 2.24668 21.3666 2.24566 22.7945C2.24218 27.2829 2.24363 31.7713 2.24494 36.2597C2.24537 37.5819 2.92567 38.2568 4.25796 38.2577C6.97696 38.2594 9.69612 38.2593 12.4151 38.2577C13.7751 38.2568 14.4355 37.588 14.4363 36.2129C14.4373 34.0048 14.4364 31.7967 14.4363 29.5888ZM52.7548 25.214C52.7548 21.5192 52.7564 17.8246 52.7539 14.1298C52.753 12.8725 52.0578 12.1744 50.8063 12.174C45.7271 12.172 40.6479 12.1723 35.5687 12.1739C34.2836 12.1743 33.5965 12.8661 33.5963 14.1595C33.5952 21.5308 33.5952 28.9021 33.5963 36.2736C33.5965 37.5655 34.2837 38.2569 35.571 38.2574C40.6321 38.2593 45.6932 38.2591 50.7542 38.2575C52.0816 38.2571 52.7538 37.5796 52.7543 36.2439C52.7558 32.5672 52.7548 28.8907 52.7548 25.214ZM16.2031 32.1339C21.4394 32.1339 26.6314 32.1339 31.8097 32.1339C31.8097 31.2568 31.8097 30.4178 31.8097 29.5912C26.5864 29.5912 21.4072 29.5912 16.2031 29.5912C16.2031 30.4448 16.2031 31.2704 16.2031 32.1339ZM32.2367 38.2301C32.0049 37.3887 32.0049 37.3888 31.1857 37.3888C28.1256 37.3888 25.0656 37.3888 22.0056 37.3888C21.8136 37.3888 21.6215 37.3888 21.4268 37.3888C21.4268 37.7089 21.4268 37.9557 21.4268 38.2301C25.0451 38.2301 28.6403 38.2301 32.2367 38.2301ZM29.852 35.6258C29.7093 35.0463 29.5736 34.4943 29.4375 33.9412C28.1252 33.9412 26.8468 33.9412 25.5588 33.9412C25.4198 34.5098 25.2873 35.0515 25.1471 35.6258C26.7253 35.6258 28.2592 35.6258 29.852 35.6258ZM6.98669 20.8854C7.17726 21.7376 7.17726 21.7376 7.95887 21.7376C8.22986 21.7376 8.50084 21.7376 8.77183 21.7376C9.55779 21.7375 9.55779 21.7375 9.66694 20.8854C8.78301 20.8854 7.90125 20.8854 6.98669 20.8854ZM31.6753 35.6427C31.7196 35.635 31.7639 35.6273 31.8081 35.6196C31.8081 35.0614 31.8081 34.5033 31.8081 33.9354C31.6342 33.9354 31.4591 33.9354 31.2354 33.9354C31.3881 34.528 31.5316 35.0853 31.6753 35.6427Z" fill="#686868"/>
<path d="M5.25 37.3879C4.85099 37.3876 4.45155 37.3982 4.05298 37.3851C3.49359 37.3667 3.12696 37.0228 3.11926 36.5316C3.11143 36.0374 3.47487 35.6663 4.027 35.6553C4.86101 35.6387 5.69574 35.6406 6.52989 35.6541C7.08957 35.6631 7.45635 36.0141 7.46433 36.5056C7.47261 37.0156 7.09189 37.3708 6.50144 37.3861C6.08458 37.3969 5.66715 37.3882 5.25 37.3879Z" fill="#0A2885"/>
<path d="M9.63176 37.3869C9.50476 37.3872 9.37746 37.3934 9.25104 37.386C8.70021 37.354 8.33576 36.9981 8.34388 36.5051C8.35201 36.0129 8.71792 35.6741 9.27775 35.6521C9.53117 35.6421 9.7859 35.6407 10.0393 35.653C10.5906 35.6798 10.9553 36.0387 10.9474 36.5319C10.9397 37.0029 10.5855 37.3491 10.067 37.385C9.92248 37.3952 9.77676 37.3868 9.63176 37.3869Z" fill="#0A2885"/>
<path d="M51.8843 23.9659C51.8843 27.172 51.8851 30.3782 51.8839 33.5843C51.8836 34.5075 51.6109 34.7796 50.6854 34.7797C45.6781 34.7806 40.6709 34.7806 35.6635 34.7797C34.7385 34.7796 34.4675 34.5083 34.4673 33.583C34.4666 27.1345 34.4666 20.686 34.4673 14.2374C34.4675 13.3121 34.7372 13.0432 35.6648 13.0429C40.6722 13.0421 45.6794 13.0421 50.6867 13.0429C51.6125 13.0431 51.8836 13.3139 51.8839 14.2387C51.8851 17.4812 51.8843 20.7235 51.8843 23.9659ZM36.2327 33.0026C40.8884 33.0026 45.5011 33.0026 50.0995 33.0026C50.0995 26.9097 50.0995 20.8555 50.0995 14.8106C45.4564 14.8106 40.8565 14.8106 36.2327 14.8106C36.2327 20.8809 36.2327 26.9222 36.2327 33.0026Z" fill="#0A2885"/>
<path d="M42.2977 37.3841C41.8252 37.3807 41.434 36.9845 41.4375 36.5129C41.441 36.0397 41.8359 35.6505 42.3091 35.6538C42.782 35.6572 43.1735 36.0531 43.1701 36.5243C43.1666 36.995 42.7684 37.3876 42.2977 37.3841Z" fill="#46B4E7"/>
</g>
<defs>
<clipPath id="clip0_400_15034">
<rect width="54" height="40" fill="white" transform="translate(0.5)"/>
</clipPath>
</defs>
</svg>
