<svg width="53" height="53" viewBox="0 0 53 53" fill="none" xmlns="http://www.w3.org/2000/svg">
<g clip-path="url(#clip0_400_15206)">
<path d="M7.13851 48.8269C7.34051 48.1829 7.50851 47.6449 7.67751 47.1069C7.72651 46.9499 7.77651 46.7939 7.82751 46.6379C8.22851 45.3979 8.23551 45.3899 7.23351 44.5539C7.11551 44.4559 6.86451 44.4369 6.70451 44.4839C5.89951 44.7189 5.10551 44.9929 4.30551 45.2449C3.63451 45.4569 3.34051 45.3669 2.96951 44.7649C2.54951 44.0819 2.16251 43.3779 1.77451 42.6749C1.50751 42.1919 1.60551 41.7699 2.02151 41.4039C2.65251 40.8479 3.26451 40.2719 3.89851 39.7209C4.13251 39.5169 4.15651 39.3269 4.12051 39.0139C4.01451 38.0889 3.55651 37.6709 2.62551 37.6119C2.01351 37.5729 1.41351 37.3599 0.807509 37.2249C0.360509 37.1249 0.0865094 36.8489 0.0775094 36.3909C0.0585094 35.4799 0.0565094 34.5679 0.0775094 33.6569C0.0885094 33.1719 0.385509 32.9049 0.856509 32.8069C1.67851 32.6359 2.49451 32.4409 3.31851 32.2829C3.65751 32.2179 3.80451 32.0639 3.94151 31.7289C4.28851 30.8829 4.07551 30.3089 3.33651 29.8049C2.85751 29.4789 2.46751 29.0259 2.02651 28.6419C1.60951 28.2789 1.50451 27.8569 1.77151 27.3719C2.16851 26.6529 2.56451 25.9339 2.99451 25.2349C3.34051 24.6729 3.64551 24.5889 4.29851 24.7929C5.06451 25.0329 5.83251 25.2659 6.58951 25.5319C6.91851 25.6469 7.11351 25.5829 7.40051 25.3599C8.11851 24.8009 8.23751 24.2089 7.84151 23.4009C7.57951 22.8659 7.45551 22.2629 7.27451 21.6889C7.12051 21.1899 7.23251 20.7799 7.69751 20.5099C8.43851 20.0789 9.17951 19.6479 9.93051 19.2359C10.3715 18.9939 10.7745 19.0849 11.1125 19.4599C11.6875 20.0979 12.2705 20.7279 12.8355 21.3749C13.0375 21.6069 13.2255 21.6369 13.5415 21.6019C14.4675 21.4969 14.8835 21.0349 14.9465 20.1079C14.9885 19.4959 15.1995 18.8959 15.3335 18.2899C15.4325 17.8429 15.7045 17.5669 16.1645 17.5569C17.0755 17.5379 17.9885 17.5359 18.8995 17.5559C19.3855 17.5659 19.6535 17.8629 19.7525 18.3329C19.9255 19.1539 20.1255 19.9699 20.2775 20.7949C20.3465 21.1699 20.5475 21.2909 20.8835 21.4309C21.6905 21.7649 22.2315 21.5489 22.7155 20.8569C23.0585 20.3669 23.5195 19.9599 23.9155 19.5059C24.2785 19.0899 24.6995 18.9829 25.1855 19.2509C25.9045 19.6469 26.6255 20.0419 27.3235 20.4709C27.8805 20.8129 27.9685 21.1279 27.7655 21.7769C27.5195 22.5599 27.2795 23.3449 27.0055 24.1189C26.8905 24.4439 27.0055 24.6189 27.2005 24.8779C27.7485 25.6039 28.3465 25.7219 29.1565 25.3249C29.6915 25.0629 30.2945 24.9389 30.8685 24.7579C31.3645 24.6009 31.7745 24.7129 32.0465 25.1769C32.4705 25.9009 32.8925 26.6259 33.3005 27.3589C33.5685 27.8399 33.4755 28.2659 33.0605 28.6329C32.4585 29.1659 31.8775 29.7229 31.2645 30.2419C30.9635 30.4959 30.9345 30.7269 30.9805 31.1269C31.0835 32.0289 31.5745 32.3259 32.3945 32.4149C33.0255 32.4829 33.6425 32.6789 34.2665 32.8159C34.7145 32.9149 34.9895 33.1889 34.9995 33.6469C35.0205 34.5579 35.0215 35.4699 35.0015 36.3809C34.9905 36.8649 34.6945 37.1349 34.2245 37.2339C33.4035 37.4069 32.5875 37.6059 31.7625 37.7619C31.3925 37.8319 31.2645 38.0289 31.1255 38.3669C30.7935 39.1749 31.0075 39.7159 31.7015 40.1989C32.1925 40.5409 32.6005 40.9999 33.0535 41.3979C33.4665 41.7609 33.5735 42.1849 33.3055 42.6699C32.9085 43.3879 32.5125 44.1079 32.0825 44.8069C31.7395 45.3649 31.4295 45.4509 30.7775 45.2469C30.0115 45.0069 29.2425 44.7739 28.4865 44.5079C28.1565 44.3919 27.9615 44.4609 27.6755 44.6819C26.9515 45.2399 26.8445 45.8359 27.2375 46.6419C27.4905 47.1609 27.6015 47.7489 27.7865 48.3029C27.9585 48.8189 27.8655 49.2459 27.3785 49.5309C26.6395 49.9639 25.8965 50.3929 25.1445 50.8039C24.7025 51.0459 24.3005 50.9509 23.9625 50.5759C23.4005 49.9509 22.8235 49.3389 22.2765 48.7009C22.0455 48.4309 21.8355 48.4079 21.4795 48.4519C20.5935 48.5629 20.2115 49.0029 20.1395 49.8789C20.0885 50.5099 19.8795 51.1269 19.7415 51.7509C19.6425 52.1979 19.3645 52.4719 18.9075 52.4819C17.9965 52.5019 17.0845 52.5029 16.1735 52.4819C15.6895 52.4709 15.4225 52.1709 15.3245 51.7009C15.1535 50.8789 14.9495 50.0639 14.8015 49.2389C14.7325 48.8579 14.5235 48.7469 14.1905 48.6069C13.3805 48.2689 12.8425 48.4949 12.3595 49.1849C12.0165 49.6749 11.5565 50.0829 11.1585 50.5359C10.7945 50.9509 10.3695 51.0539 9.88651 50.7849C9.13851 50.3669 8.38551 49.9529 7.66651 49.4889C7.43451 49.3389 7.30051 49.0379 7.13851 48.8269ZM25.9595 48.3679C25.6695 47.4589 25.4055 46.5719 25.0995 45.6979C24.9105 45.1579 25.0265 44.7629 25.4565 44.3879C25.9505 43.9569 26.4305 43.4999 26.8495 42.9979C27.2625 42.5039 27.6955 42.3819 28.2955 42.5969C29.1465 42.9019 30.0155 43.1579 30.8965 43.4419C31.1135 43.0499 31.3035 42.7069 31.4945 42.3629C30.7725 41.7079 30.1075 41.0829 29.4175 40.4859C28.9885 40.1149 28.8825 39.7149 29.0675 39.1729C29.2845 38.5369 29.4655 37.8819 29.5925 37.2219C29.7055 36.6369 30.0055 36.3339 30.5855 36.2239C31.4935 36.0519 32.3935 35.8379 33.2885 35.6439C33.2885 35.1909 33.2885 34.7979 33.2885 34.3919C32.3435 34.1899 31.4355 33.9869 30.5235 33.8049C29.9915 33.6989 29.7095 33.4009 29.6005 32.8659C29.4705 32.2239 29.3335 31.5739 29.1005 30.9649C28.8565 30.3299 29.0025 29.8939 29.5005 29.4739C30.1815 28.8999 30.8255 28.2829 31.5035 27.6689C31.2835 27.2879 31.0865 26.9459 30.8875 26.6019C29.9505 26.9009 29.0595 27.1679 28.1815 27.4719C27.6585 27.6539 27.2795 27.5219 26.9205 27.1159C26.4855 26.6249 26.0345 26.1389 25.5325 25.7199C25.0425 25.3109 24.8955 24.8859 25.1135 24.2809C25.4195 23.4279 25.6765 22.5579 25.9635 21.6669C25.5805 21.4539 25.2365 21.2629 24.8845 21.0659C24.2135 21.8049 23.5725 22.5049 22.9395 23.2119C22.6085 23.5809 22.2395 23.6689 21.7595 23.5119C21.1025 23.2969 20.4335 23.1019 19.7565 22.9709C19.1745 22.8579 18.8575 22.5729 18.7455 21.9909C18.5715 21.0819 18.3595 20.1799 18.1615 19.2689C17.7225 19.2689 17.3285 19.2689 16.9165 19.2689C16.7175 20.1879 16.5055 21.0749 16.3385 21.9699C16.2255 22.5779 15.8975 22.8699 15.2905 22.9759C14.6645 23.0859 14.0415 23.2529 13.4455 23.4729C12.8605 23.6889 12.4375 23.5729 12.0405 23.1099C11.4485 22.4189 10.8225 21.7579 10.1895 21.0599C9.81751 21.2729 9.47551 21.4679 9.11751 21.6729C9.41051 22.5839 9.67151 23.4569 9.97451 24.3139C10.1715 24.8719 10.0535 25.2819 9.60551 25.6719C9.09751 26.1119 8.62051 26.5949 8.17451 27.0999C7.79851 27.5249 7.40551 27.6509 6.86451 27.4619C5.99051 27.1559 5.10351 26.8909 4.18751 26.5969C3.97751 26.9699 3.78451 27.3129 3.58251 27.6719C4.29051 28.3139 4.95451 28.9399 5.64551 29.5339C6.09151 29.9179 6.20051 30.3299 6.00351 30.8949C5.78251 31.5299 5.61551 32.1869 5.48251 32.8469C5.36951 33.4069 5.07351 33.7039 4.51951 33.8119C3.61051 33.9899 2.70751 34.1999 1.78351 34.4009C1.78351 34.8279 1.78351 35.2219 1.78351 35.6399C2.71651 35.8409 3.62051 36.0499 4.53151 36.2279C5.08751 36.3369 5.37951 36.6399 5.48451 37.2009C5.59851 37.8089 5.71651 38.4309 5.95351 38.9959C6.24551 39.6949 6.07051 40.1659 5.51951 40.6229C4.84951 41.1779 4.22251 41.7849 3.57451 42.3709C3.79951 42.7569 3.99051 43.0849 4.19651 43.4379C5.11151 43.1449 6.00151 42.8799 6.87551 42.5729C7.42051 42.3809 7.81251 42.5169 8.18251 42.9429C8.58851 43.4099 9.02951 43.8509 9.48651 44.2689C10.1495 44.8749 10.1985 45.0039 9.91451 45.8869C9.64951 46.7119 9.38851 47.5389 9.12351 48.3729C9.51051 48.5909 9.84051 48.7769 10.1935 48.9769C10.8535 48.2499 11.4975 47.5549 12.1245 46.8449C12.4705 46.4519 12.8515 46.3689 13.3495 46.5349C13.9875 46.7479 14.6385 46.9439 15.2995 47.0639C15.9085 47.1749 16.2275 47.4709 16.3415 48.0769C16.5115 48.9839 16.7285 49.8819 16.9245 50.7769C17.3685 50.7769 17.7465 50.7769 18.1605 50.7769C18.3585 49.8709 18.5735 48.9869 18.7375 48.0939C18.8485 47.4919 19.1505 47.1759 19.7645 47.0669C20.3905 46.9569 21.0175 46.7989 21.6105 46.5739C22.2185 46.3439 22.6495 46.4669 23.0605 46.9499C23.6485 47.6419 24.2755 48.2999 24.8935 48.9809C25.2695 48.7649 25.5985 48.5759 25.9595 48.3679Z" fill="black"/>
<path d="M29.9497 1.963C30.1867 2.057 30.3777 2.116 30.5537 2.204C31.1567 2.508 31.7507 2.828 32.3547 3.129C32.8027 3.353 33.1777 3.197 33.3327 2.728C33.5497 2.07 33.7637 1.411 33.9607 0.746004C34.0967 0.288004 34.3767 0.0160037 34.8577 0.00700367C35.6037 -0.00599633 36.3507 -0.00599633 37.0967 0.0120037C37.5557 0.0230037 37.8217 0.294004 37.9527 0.727004C38.1487 1.372 38.3587 2.014 38.5667 2.656C38.7517 3.226 39.1087 3.371 39.6487 3.094C40.2327 2.794 40.8197 2.497 41.3937 2.18C41.8347 1.936 42.2387 1.957 42.5987 2.303C43.1107 2.796 43.6117 3.302 44.1067 3.812C44.4557 4.172 44.4827 4.574 44.2427 5.015C43.9197 5.608 43.6117 6.209 43.3057 6.81C43.0497 7.315 43.2067 7.67 43.7547 7.845C44.3627 8.039 44.9687 8.24 45.5817 8.417C46.0957 8.566 46.4187 8.862 46.4217 9.419C46.4257 10.147 46.4227 10.876 46.4037 11.604C46.3917 12.039 46.1367 12.307 45.7297 12.436C45.0517 12.652 44.3727 12.863 43.6967 13.082C43.2297 13.233 43.0627 13.616 43.2837 14.057C43.5857 14.661 43.8877 15.266 44.2197 15.853C44.4937 16.337 44.4497 16.76 44.0697 17.149C43.5987 17.632 43.1217 18.11 42.6377 18.58C42.2437 18.963 41.8167 18.978 41.3397 18.706C40.7697 18.381 40.1797 18.089 39.5937 17.793C39.1197 17.553 38.7457 17.709 38.5807 18.212C38.3657 18.871 38.1537 19.53 37.9507 20.193C37.8187 20.626 37.5467 20.894 37.0887 20.902C36.3247 20.916 35.5597 20.916 34.7957 20.896C34.3607 20.885 34.1017 20.62 33.9747 20.212C33.7737 19.568 33.5677 18.925 33.3607 18.283C33.1627 17.669 32.8277 17.532 32.2447 17.832C31.6607 18.132 31.0777 18.436 30.4997 18.747C30.0807 18.972 29.6877 18.956 29.3417 18.622C28.8177 18.115 28.2997 17.601 27.7937 17.076C27.4617 16.732 27.4387 16.339 27.6657 15.918C27.9597 15.372 28.2417 14.819 28.5277 14.268C28.9097 13.533 28.7867 13.245 27.9847 12.993C27.4107 12.813 26.8397 12.621 26.2617 12.456C25.8027 12.325 25.5227 12.053 25.5107 11.57C25.4937 10.842 25.4917 10.113 25.5037 9.385C25.5117 8.885 25.7827 8.588 26.2687 8.45C26.9167 8.265 27.5567 8.05 28.1977 7.839C28.7077 7.671 28.8627 7.304 28.6227 6.828C28.3187 6.225 28.0147 5.622 27.6867 5.032C27.4287 4.568 27.4687 4.156 27.8347 3.784C28.3327 3.277 28.8327 2.77 29.3537 2.287C29.5187 2.139 29.7557 2.067 29.9497 1.963ZM30.1367 3.974C30.0817 4.006 30.0167 4.035 29.9627 4.078C29.6217 4.354 29.3697 4.603 29.6937 5.109C30.3747 6.174 31.0617 7.281 30.1257 8.553C29.9117 8.843 29.6547 9.159 29.3427 9.305C28.8197 9.551 28.2427 9.687 27.6797 9.839C27.3377 9.931 27.1747 10.068 27.1717 10.469C27.1677 10.887 27.3717 11.005 27.6997 11.083C27.8947 11.129 28.0817 11.219 28.2777 11.247C29.4937 11.416 30.2607 12.084 30.5007 13.291C30.5667 13.623 30.5757 14.014 30.4627 14.324C30.2697 14.851 29.9747 15.343 29.6927 15.832C29.5097 16.149 29.4537 16.378 29.7647 16.68C30.0587 16.967 30.2787 16.928 30.5687 16.735C30.7347 16.625 30.9397 16.57 31.0997 16.454C32.0387 15.769 32.9837 15.638 34.0317 16.258C34.4167 16.485 34.7257 16.691 34.8537 17.132C35.0207 17.71 35.2347 18.275 35.3817 18.857C35.4647 19.183 35.6397 19.246 35.9317 19.237C36.2167 19.228 36.4497 19.241 36.5417 18.864C36.6887 18.263 36.8537 17.656 37.1087 17.097C37.2517 16.783 37.5537 16.502 37.8507 16.306C38.8837 15.626 39.8967 15.742 40.8667 16.477C41.0097 16.585 41.1967 16.634 41.3497 16.732C41.6347 16.916 41.8577 16.98 42.1537 16.685C42.4537 16.386 42.4457 16.151 42.2317 15.84C42.1297 15.691 42.0857 15.5 41.9767 15.357C41.2357 14.386 41.1327 13.372 41.8097 12.341C42.0047 12.045 42.2907 11.746 42.6047 11.603C43.1647 11.348 43.7717 11.187 44.3717 11.035C44.7077 10.95 44.7397 10.756 44.7377 10.477C44.7357 10.186 44.7237 9.964 44.3547 9.875C43.7717 9.735 43.2077 9.515 42.6297 9.348C42.1877 9.221 41.9837 8.911 41.7587 8.524C41.1497 7.476 41.2617 6.531 41.9577 5.592C42.0867 5.419 42.1447 5.194 42.2677 5.015C42.4667 4.725 42.4257 4.519 42.1767 4.262C41.9077 3.984 41.7057 3.988 41.3777 4.163C40.2767 4.751 39.1987 5.634 37.8777 4.635C37.8637 4.625 37.8377 4.628 37.8267 4.617C37.5837 4.367 37.2527 4.156 37.1197 3.857C36.8627 3.278 36.6917 2.655 36.5347 2.037C36.4467 1.692 36.2367 1.681 35.9667 1.685C35.7037 1.688 35.4807 1.675 35.3917 2.027C35.2347 2.644 35.0637 3.267 34.8077 3.847C34.6747 4.147 34.3857 4.42 34.1017 4.605C33.0737 5.274 32.0597 5.205 31.0817 4.457C30.8817 4.304 30.6327 4.216 30.4057 4.1C30.3227 4.057 30.2397 4.022 30.1367 3.974Z" fill="black"/>
<path d="M48.7811 37.8261C48.2251 37.5721 47.7621 37.3631 47.3011 37.1501C46.7051 36.8741 46.2531 37.0601 46.0271 37.6801C46.0021 37.7491 45.9781 37.8181 45.9471 37.8841C45.7261 38.3691 45.7551 39.1361 45.1541 39.2311C44.2921 39.3671 43.3881 39.2811 42.5071 39.2171C42.3361 39.2051 42.1471 38.8791 42.0431 38.6611C41.8781 38.3181 41.7841 37.9411 41.6501 37.5831C41.4761 37.1161 40.9681 36.9031 40.5151 37.1051C40.1821 37.2531 39.8481 37.4011 39.5251 37.5711C39.0821 37.8041 38.6771 37.7661 38.3191 37.4211C37.8851 37.0041 37.4601 36.5771 37.0451 36.1421C36.7351 35.8171 36.6841 35.4401 36.8851 35.0321C37.0381 34.7211 37.1841 34.4071 37.3321 34.0931C37.6191 33.4821 37.4211 33.0211 36.7721 32.7901C35.0481 32.1751 35.0351 32.1551 35.0881 30.3261C35.1211 29.1711 35.2121 29.0441 36.2751 28.6611C36.5151 28.5751 36.7611 28.5021 36.9971 28.4041C37.3471 28.2591 37.5601 27.7171 37.4151 27.3621C37.3531 27.2101 37.2761 27.0651 37.2061 26.9161C36.5821 25.5991 36.5911 25.5401 37.6051 24.5011C37.7201 24.3831 37.8391 24.2701 37.9601 24.1591C38.7761 23.4131 38.9011 23.3951 39.8911 23.8701C40.1381 23.9881 40.3941 24.2161 40.6301 24.1961C40.9621 24.1681 41.3151 24.0071 41.5871 23.8051C41.7461 23.6871 41.7641 23.3791 41.8441 23.1561C42.2701 21.9631 42.3711 21.8911 43.6581 21.8681C43.7131 21.8671 43.7681 21.8651 43.8221 21.8651C45.3571 21.8601 45.4771 21.8951 45.9201 23.3571C46.1671 24.1721 46.7811 24.4281 47.5261 24.0381C48.9131 23.3131 48.9941 23.3661 50.0991 24.4901C50.2271 24.6201 50.3401 24.7661 50.4721 24.8911C50.9811 25.3721 51.0791 25.8981 50.7011 26.5101C50.5491 26.7571 50.4421 27.0331 50.3241 27.2991C50.1221 27.7521 50.3381 28.2541 50.8091 28.4321C51.0821 28.5351 51.3521 28.6541 51.6341 28.7211C52.3101 28.8821 52.6031 29.3171 52.6061 29.9861C52.6071 30.1141 52.6191 30.2411 52.6221 30.3691C52.6671 32.1411 52.6431 32.1761 50.9991 32.7721C50.2371 33.0481 50.0741 33.4471 50.4221 34.1831C51.1531 35.7301 51.1471 35.8031 49.8851 36.9791C49.5471 37.2911 49.1521 37.5431 48.7811 37.8261ZM48.6461 35.8451C48.7461 35.5981 48.9481 35.3471 48.9051 35.1481C48.8271 34.7831 48.5651 34.4611 48.4571 34.0981C48.3801 33.8381 48.3591 33.5181 48.4351 33.2621C48.7621 32.1601 49.2591 31.2011 50.5881 31.0431C50.6961 31.0301 50.8561 30.7921 50.8511 30.6651C50.8441 30.5101 50.7231 30.2911 50.5891 30.2241C50.2661 30.0621 49.8941 30.0001 49.5681 29.8421C49.3511 29.7371 49.1021 29.5731 49.0031 29.3701C48.5071 28.3501 48.0171 27.3171 48.8681 26.2201C48.9481 26.1171 48.8821 25.8091 48.7781 25.6851C48.6941 25.5851 48.4371 25.5661 48.2811 25.6061C48.0381 25.6691 47.8091 25.7981 47.5881 25.9251C47.1211 26.1941 46.7031 26.0991 46.1921 25.9531C45.1051 25.6411 44.4801 25.0141 44.2631 23.9181C44.2391 23.7951 43.9881 23.6361 43.8451 23.6381C43.7021 23.6411 43.5041 23.7961 43.4341 23.9361C43.2801 24.2431 43.2291 24.6031 43.0651 24.9031C42.9341 25.1441 42.7381 25.4061 42.5031 25.5241C41.4941 26.0351 40.4581 26.4321 39.4121 25.5861C39.3981 25.5751 39.3771 25.5621 39.3621 25.5661C39.2071 25.6021 39.0071 25.5971 38.9111 25.6931C38.8151 25.7901 38.7621 26.0081 38.8011 26.1411C38.8811 26.4181 39.0171 26.6841 39.1621 26.9351C39.4241 27.3901 39.3151 27.7931 39.1771 28.2811C38.8631 29.3871 38.2161 30.0241 37.0991 30.2361C36.9911 30.2571 36.8571 30.4921 36.8561 30.6281C36.8561 30.7641 36.9771 30.9611 37.1001 31.0251C37.3891 31.1741 37.7071 31.2721 38.0211 31.3651C38.4641 31.4971 38.6491 31.8191 38.8621 32.2131C39.4061 33.2181 39.4751 34.1561 38.8061 35.1211C38.7451 35.2101 38.8131 35.4821 38.9101 35.5621C39.0281 35.6601 39.2611 35.7121 39.4061 35.6651C39.7501 35.5521 40.0601 35.3331 40.4051 35.2271C40.6501 35.1521 40.9571 35.1141 41.1911 35.1941C42.2541 35.5571 43.2931 35.9661 43.4401 37.3241C43.4531 37.4451 43.7101 37.6351 43.8381 37.6231C43.9991 37.6081 44.2461 37.4411 44.2781 37.2981C44.5091 36.2901 45.0241 35.5811 46.0951 35.3841C46.1121 35.3811 46.1291 35.3701 46.1441 35.3601C46.6611 35.0111 47.1681 35.0761 47.6841 35.3771C47.9501 35.5361 48.2391 35.6511 48.6461 35.8451Z" fill="black"/>
<path d="M18.888 12.0799C18.52 11.7849 18.153 11.4899 17.756 11.1719C18.263 10.7179 18.677 10.3459 19.083 9.98193C19.923 10.7989 20.853 11.6719 21.741 12.5849C22.039 12.8919 22.014 13.3299 21.713 13.6359C20.832 14.5329 19.92 15.3979 19.007 16.2889C18.628 15.9049 18.246 15.5159 17.826 15.0899C18.134 14.7679 18.443 14.4449 18.86 14.0069C15.397 13.8259 12.212 14.3899 9.155 15.7129C6.103 17.0329 3.527 18.9929 1.362 21.5399C0.915 21.1689 0.497 20.8199 0 20.4059C5.007 14.6999 11.259 11.9999 18.798 12.2159C18.828 12.1709 18.858 12.1249 18.888 12.0799Z" fill="black"/>
<path d="M47.809 4.87104C47.649 5.62804 47.5 6.33305 47.336 7.10604C46.768 6.99704 46.225 6.89304 45.623 6.77704C45.932 5.25304 46.217 3.77104 46.543 2.29804C46.635 1.88104 46.993 1.62704 47.414 1.70204C48.9 1.96504 50.378 2.27304 51.91 2.57404C51.798 3.16004 51.697 3.69004 51.583 4.28504C50.847 4.14604 50.142 4.01404 49.384 3.87104C51.835 9.51604 51.258 14.778 47.64 19.792C47.373 19.584 47.149 19.413 46.929 19.237C46.716 19.067 46.506 18.892 46.249 18.681C48.288 16.055 49.252 13.082 49.105 9.76404C49.03 8.10504 48.467 5.96404 47.809 4.87104Z" fill="black"/>
<path d="M17.5516 44.6691C12.2296 44.6741 7.89062 40.3391 7.89062 35.0181C7.89163 29.6951 12.2286 25.3661 17.5546 25.3711C22.8526 25.3761 27.1776 29.6971 27.1886 34.9931C27.1986 40.3181 22.8706 44.6641 17.5516 44.6691ZM17.5136 42.9141C21.8536 42.9231 25.4136 39.3981 25.4336 35.0711C25.4536 30.7031 21.9186 27.1341 17.5636 27.1251C13.2206 27.1161 9.66263 30.6401 9.64463 34.9661C9.62663 39.3351 13.1616 42.9061 17.5136 42.9141Z" fill="black"/>
<path d="M31.5763 10.4189C31.5923 8.00691 33.5893 6.05191 36.0133 6.07391C38.4253 6.09591 40.3723 8.09691 40.3443 10.5239C40.3173 12.9099 38.3333 14.8539 35.9353 14.8429C33.5213 14.8309 31.5603 12.8409 31.5763 10.4189ZM35.8883 13.0869C37.3243 13.1219 38.5423 11.9799 38.5893 10.5569C38.6373 9.09691 37.4813 7.86291 36.0333 7.82891C34.5953 7.79491 33.3783 8.93491 33.3323 10.3579C33.2853 11.8189 34.4403 13.0519 35.8883 13.0869Z" fill="black"/>
<path d="M47.3617 30.616C47.3697 32.553 45.7917 34.139 43.8577 34.141C41.9237 34.142 40.3437 32.558 40.3477 30.623C40.3527 28.711 41.9147 27.14 43.8237 27.127C45.7637 27.113 47.3537 28.682 47.3617 30.616ZM43.8807 28.881C42.9247 28.867 42.1227 29.64 42.1027 30.594C42.0827 31.547 42.8517 32.358 43.8017 32.386C44.7747 32.415 45.6017 31.618 45.6077 30.646C45.6137 29.694 44.8317 28.894 43.8807 28.881Z" fill="black"/>
</g>
<defs>
<clipPath id="clip0_400_15206">
<rect width="52.632" height="52.497" fill="white"/>
</clipPath>
</defs>
</svg>
