<svg width="50" height="57" viewBox="0 0 50 57" fill="none" xmlns="http://www.w3.org/2000/svg">
<g clip-path="url(#clip0_400_15217)">
<path d="M7.19283 38.5989C7.19283 37.9749 7.20383 37.2909 7.18983 36.6079C7.17683 36.0009 7.43583 35.6459 8.03283 35.4749C8.89083 35.2279 9.72683 34.9039 10.5848 34.6559C10.9478 34.5509 11.1208 34.3619 11.2468 34.0149C11.5158 33.2739 11.8658 32.5629 12.1268 31.8199C12.2158 31.5669 12.2248 31.2139 12.1178 30.9749C11.7438 30.1419 11.3118 29.3329 10.8828 28.5249C10.6118 28.0139 10.6638 27.5899 11.0858 27.1769C12.1278 26.1579 13.1558 25.1249 14.1788 24.0869C14.5708 23.6889 14.9818 23.6249 15.4738 23.8809C16.3218 24.3219 17.1698 24.7659 18.0388 25.1649C18.2418 25.2579 18.5498 25.2419 18.7688 25.1619C19.5478 24.8769 20.3178 24.5619 21.0718 24.2159C21.2848 24.1179 21.5158 23.9059 21.5948 23.6929C21.9118 22.8359 22.1998 21.9659 22.4458 21.0859C22.6288 20.4309 23.0208 20.1669 23.6788 20.2069C24.0498 20.2299 24.4228 20.2109 24.8258 20.2109C24.9438 19.4949 24.8988 18.9669 24.3198 18.4119C23.3618 17.4939 22.3978 17.2449 21.0528 17.3769C16.5198 17.8199 12.3858 14.8969 11.0848 10.5339C10.7808 9.51389 10.9808 9.15889 11.9948 8.91489C16.6288 7.80089 21.4298 10.2529 23.2268 14.6519C23.7008 15.8119 23.7008 15.8119 24.8848 16.6269C24.8848 15.7409 24.8578 14.9249 24.8928 14.1109C24.9228 13.4019 24.7558 12.8439 24.2858 12.2519C21.5238 8.77089 21.7778 3.82489 24.8158 0.591892C25.5558 -0.196108 25.9238 -0.197108 26.6668 0.583892C29.8058 3.88189 29.9418 9.00889 27.0118 12.5619C26.7878 12.8339 26.6508 13.2489 26.6328 13.6059C26.5818 14.5749 26.6148 15.5479 26.6148 16.6679C27.5398 15.8639 28.4708 15.3879 28.9748 14.2429C30.8248 10.0379 35.5488 7.82589 40.0088 8.92089C40.9898 9.16189 41.1858 9.51189 40.8958 10.5029C39.4618 15.4059 34.4518 18.3569 29.4708 17.2069C29.0288 17.1049 28.7128 17.1749 28.3918 17.4539C28.0468 17.7539 27.7108 18.0759 27.3268 18.3189C26.6198 18.7679 26.4798 19.3849 26.6898 20.2119C27.0408 20.2119 27.4118 20.2319 27.7808 20.2079C28.4638 20.1629 28.8678 20.4309 29.0538 21.1169C29.2888 21.9779 29.5758 22.8269 29.8928 23.6609C29.9798 23.8889 30.2228 24.1139 30.4508 24.2199C31.1838 24.5629 31.9328 24.8749 32.6958 25.1429C32.9468 25.2309 33.2968 25.2359 33.5348 25.1289C34.3678 24.7539 35.1758 24.3199 35.9848 23.8949C36.4958 23.6259 36.9178 23.6859 37.3308 24.1089C38.3478 25.1519 39.3808 26.1809 40.4208 27.2009C40.8248 27.5969 40.8698 28.0119 40.6188 28.4979C40.1888 29.3289 39.7478 30.1549 39.3598 31.0059C39.2588 31.2269 39.2628 31.5559 39.3458 31.7889C39.6258 32.5699 39.9438 33.3389 40.2908 34.0919C40.3888 34.3039 40.6028 34.5299 40.8158 34.6089C41.6328 34.9119 42.4728 35.1559 43.3028 35.4269C44.1848 35.7149 44.2788 35.8449 44.2828 36.7619C44.2838 37.0089 44.2828 37.2549 44.2828 37.5609C44.6398 37.4949 44.9358 37.4169 45.2358 37.3879C46.7168 37.2449 48.1108 37.9979 48.6968 39.2429C49.3168 40.5619 49.0608 42.1879 47.9248 43.2659C47.0368 44.1079 46.0388 44.8349 45.0748 45.5949C42.2798 47.7989 39.5028 50.0259 36.6728 52.1819C33.9488 54.2569 30.8138 55.4679 27.5068 56.2449C24.0368 57.0609 20.5618 56.8179 17.0948 56.1869C14.3748 55.6929 11.6538 55.1969 8.93683 54.6869C8.62883 54.6289 8.45783 54.6699 8.28683 54.9649C7.82383 55.7669 7.09583 56.1659 6.16983 56.1729C4.92083 56.1819 3.67083 56.2009 2.42283 56.1669C0.993833 56.1279 0.0138326 55.1139 0.00983258 53.6789C-0.00116742 49.4739 -0.000167415 45.2679 0.00983258 41.0629C0.0128326 39.7529 0.865833 38.6859 2.11683 38.6199C3.76983 38.5329 5.43483 38.5989 7.19283 38.5989ZM8.66583 52.8639C8.78283 52.9029 8.87883 52.9479 8.97883 52.9659C11.5138 53.4299 14.0508 53.8839 16.5838 54.3559C20.0198 54.9959 23.4628 55.3709 26.9298 54.6189C29.8828 53.9779 32.7258 52.9539 35.1518 51.1639C38.9338 48.3739 42.5708 45.3849 46.2588 42.4679C46.5628 42.2279 46.8468 41.9259 47.0418 41.5949C47.3918 41.0009 47.4208 40.3579 46.9968 39.7739C46.5588 39.1719 45.9318 38.9959 45.2248 39.1459C44.9678 39.2009 44.7228 39.3409 44.4908 39.4739C40.9238 41.5289 37.3518 43.5759 33.7998 45.6559C32.7638 46.2629 31.7038 46.6469 30.4858 46.5219C30.3148 46.5049 30.0698 46.5929 29.9568 46.7199C29.1228 47.6599 28.0778 48.0219 26.8408 48.0109C24.1768 47.9869 21.5128 48.0039 18.8488 48.0029C18.6828 48.0029 18.5138 48.0139 18.3498 47.9929C17.8708 47.9319 17.5838 47.6419 17.5648 47.1709C17.5458 46.6939 17.8238 46.3899 18.2918 46.2979C18.4928 46.2579 18.7058 46.2719 18.9138 46.2719C21.6198 46.2709 24.3258 46.2739 27.0308 46.2689C28.2388 46.2669 29.0348 45.5289 29.0278 44.4399C29.0208 43.3559 28.2188 42.6339 27.0048 42.6319C24.7158 42.6279 22.4258 42.6049 20.1368 42.6419C18.9788 42.6599 17.8578 42.6339 16.8468 41.9669C16.6428 41.8329 16.3908 41.7689 16.1548 41.6879C13.6878 40.8399 11.1938 40.8239 8.66583 41.3959C8.66583 45.2489 8.66583 49.0529 8.66583 52.8639ZM36.3568 25.6439C35.4868 26.0859 34.5768 26.5379 33.6788 27.0099C33.2518 27.2339 32.8728 27.1929 32.4368 26.9949C31.4188 26.5309 30.3878 26.0879 29.3378 25.7059C28.8558 25.5299 28.5688 25.2719 28.4238 24.7909C28.1778 23.9759 27.8858 23.1739 27.6468 22.3559C27.5468 22.0149 27.3788 21.9029 27.0278 21.9139C26.1748 21.9389 25.3198 21.9429 24.4678 21.9129C24.0728 21.8989 23.9268 22.0609 23.8248 22.4129C23.5998 23.1909 23.3108 23.9509 23.0868 24.7289C22.9338 25.2609 22.6208 25.5449 22.0968 25.7329C21.0838 26.0969 20.0838 26.5089 19.1098 26.9669C18.6048 27.2049 18.1888 27.2179 17.7008 26.9519C16.8478 26.4859 15.9688 26.0669 15.2168 25.6879C14.3378 26.5629 13.5178 27.3799 12.6668 28.2269C13.0868 29.0509 13.5818 29.9209 13.9698 30.8359C14.1118 31.1709 14.1048 31.6529 13.9798 32.0009C13.5868 33.0919 13.0808 34.1419 12.6708 35.2269C12.5068 35.6609 12.2678 35.9209 11.8308 36.0549C10.9968 36.3109 10.1668 36.5839 9.34483 36.8759C9.17883 36.9329 8.93683 37.0999 8.92983 37.2279C8.89083 37.9849 8.91083 38.7439 8.91083 39.4069C10.8698 39.4069 12.7288 39.4069 14.6308 39.4069C14.5148 36.0149 15.6198 33.0309 18.1568 30.6639C20.7098 28.2819 23.7588 27.3109 27.2278 27.7549C30.1278 28.1259 32.5188 29.4729 34.3378 31.7449C36.7968 34.8169 37.4298 38.2929 36.3428 42.1829C38.1868 41.1209 39.9058 40.0709 41.6848 39.1339C42.4318 38.7409 42.6858 38.2649 42.5948 37.4709C42.5568 37.1359 42.4918 36.9529 42.1418 36.8529C41.3428 36.6249 40.5638 36.3309 39.7658 36.0979C39.2368 35.9429 38.9538 35.6289 38.7668 35.1029C38.4058 34.0889 37.9888 33.0909 37.5318 32.1159C37.3068 31.6369 37.2648 31.2339 37.5188 30.7639C37.9908 29.8889 38.4268 28.9959 38.8608 28.1419C38.0128 27.2969 37.2038 26.4899 36.3568 25.6439ZM30.7918 44.7559C31.8578 44.9159 33.5718 44.0919 34.0288 43.1619C35.7898 39.5809 35.5678 36.1049 33.0998 32.9719C30.5968 29.7949 27.2118 28.7149 23.2948 29.7019C18.9148 30.8059 16.0338 34.9909 16.3888 39.5159C16.4008 39.6709 16.4328 39.9249 16.5228 39.9589C17.3838 40.2919 18.2498 40.8139 19.1338 40.8529C21.7708 40.9709 24.4158 40.8859 27.0578 40.8989C28.9228 40.9079 30.3358 42.0369 30.6948 43.7829C30.7588 44.1039 30.7608 44.4359 30.7918 44.7559ZM1.72183 47.3299C1.72183 49.3909 1.71683 51.4509 1.72483 53.5119C1.72783 54.2129 1.97183 54.4649 2.65383 54.4729C3.75683 54.4859 4.85983 54.4849 5.96283 54.4739C6.65983 54.4669 6.91183 54.2199 6.91283 53.5369C6.91783 49.4369 6.91783 45.3359 6.91383 41.2359C6.91283 40.5159 6.66583 40.2809 5.92583 40.2749C4.88483 40.2669 3.84483 40.2699 2.80383 40.2739C1.94583 40.2769 1.72583 40.4879 1.72383 41.3359C1.71783 43.3329 1.72083 45.3319 1.72183 47.3299ZM21.6948 15.5969C20.4858 11.7749 15.9248 9.65589 12.9438 10.5949C14.1408 14.0699 17.9468 16.2589 21.6948 15.5969ZM30.2698 15.5899C33.9868 16.3869 38.0498 13.8439 38.9988 10.5599C35.8268 9.71189 31.5038 11.8449 30.2698 15.5899ZM25.7368 2.20389C23.5588 4.64289 23.5738 9.17689 25.7388 11.2639C27.9138 9.20789 27.9308 4.57189 25.7368 2.20389Z" fill="black"/>
<path d="M24.1932 37.796C25.9302 36.321 27.7682 34.758 29.6072 33.197C29.7341 33.089 29.8541 32.969 29.9962 32.885C30.4042 32.642 30.8022 32.663 31.1202 33.032C31.4382 33.401 31.4151 33.805 31.0951 34.16C30.8871 34.39 30.6351 34.581 30.3971 34.783C28.5411 36.36 26.6851 37.937 24.8281 39.512C24.1311 40.103 23.7732 40.085 23.1312 39.419C22.3942 38.655 21.6602 37.888 20.9262 37.12C20.4162 36.586 20.3481 36.087 20.7301 35.705C21.1321 35.303 21.6181 35.401 22.1851 35.946C22.8281 36.567 23.4992 37.16 24.1932 37.796Z" fill="black"/>
</g>
<defs>
<clipPath id="clip0_400_15217">
<rect width="49.024" height="56.764" fill="white"/>
</clipPath>
</defs>
</svg>
