<svg width="45" height="40" viewBox="0 0 45 40" fill="none" xmlns="http://www.w3.org/2000/svg">
<g clip-path="url(#clip0_400_15169)">
<path d="M44.2128 39.6006C43.9644 39.926 43.6284 40.0011 43.2321 40C40.2818 39.9894 37.3325 39.9947 34.3821 39.9937C34.2384 39.9937 34.0926 39.9926 33.9531 39.9662C33.6107 39.9007 33.4205 39.6809 33.4237 39.3343C33.4268 38.9866 33.6223 38.7721 33.9647 38.7119C34.1052 38.6876 34.2511 38.6886 34.3948 38.6886C35.3881 38.6865 36.3804 38.6876 37.3737 38.6876C37.5269 38.6876 37.6801 38.6876 37.8555 38.6876C37.8555 37.0359 37.8555 35.4455 37.8555 33.833C30.9573 33.833 24.0833 33.833 17.1745 33.833C17.1745 35.436 17.1745 37.0359 17.1745 38.6876C17.3753 38.6876 17.5591 38.6876 17.743 38.6876C22.1749 38.6876 26.6078 38.6876 31.0397 38.6886C31.1982 38.6886 31.3578 38.6844 31.5142 38.7034C31.8798 38.7478 32.0996 38.9665 32.1059 39.329C32.1123 39.6904 31.902 39.9176 31.5374 39.9736C31.4106 39.9937 31.2796 39.9937 31.1507 39.9937C24.6888 39.9947 18.228 39.9947 11.7662 39.9937C10.9842 39.9937 10.8004 39.8056 10.7993 39.0257C10.7993 36.1335 10.7982 33.2402 10.7993 30.3479C10.8004 28.6889 11.5147 27.6681 13.0691 27.052C13.1864 27.0055 13.2984 26.7868 13.3048 26.6431C13.3449 25.7818 13.2879 24.9111 13.3851 24.0583C13.6038 22.1309 15.2671 20.6557 17.2051 20.6082C17.9966 20.5881 18.7881 20.5965 19.5796 20.6029C20.0498 20.606 20.3235 20.8597 20.3172 21.2601C20.3108 21.6522 20.0319 21.8931 19.5574 21.8973C18.8378 21.9037 18.1181 21.8942 17.3985 21.9005C15.8525 21.9132 14.6891 23.0175 14.6225 24.5635C14.5919 25.282 14.6024 26.0027 14.6267 26.7213C14.631 26.8407 14.7757 27.0182 14.8941 27.0626C16.3418 27.5973 17.1143 28.6582 17.1375 30.201C17.1491 30.9598 17.1396 31.7196 17.1396 32.4962C24.0696 32.4962 30.9435 32.4962 37.8809 32.4962C37.8809 32.1148 37.8746 31.746 37.882 31.3761C37.8946 30.7442 37.8333 30.0954 37.9517 29.4825C38.2064 28.1574 39.0792 27.3574 40.3684 26.9876C40.3684 26.0756 40.4466 25.1668 40.3505 24.276C40.1972 22.8526 39.0602 21.9058 37.6283 21.9016C34.5924 21.8942 31.5554 21.8995 28.5194 21.8995C26.5043 21.8995 24.4902 21.9047 22.475 21.891C22.2605 21.89 21.9878 21.8339 21.8494 21.6966C21.7152 21.5634 21.636 21.2686 21.6846 21.0858C21.7342 20.903 21.9593 20.7529 22.1347 20.6272C22.2129 20.5712 22.3577 20.6018 22.4729 20.6018C27.5092 20.6008 32.5466 20.5965 37.5829 20.6039C39.5674 20.6071 41.2138 21.873 41.5784 23.7519C41.7274 24.5191 41.6682 25.3264 41.6978 26.1158C41.7083 26.4011 41.6999 26.6875 41.6999 26.9865C42.726 27.2591 43.4805 27.8382 43.9222 28.784C44.0416 29.0408 44.1177 29.3176 44.2138 29.585C44.2128 32.9221 44.2128 36.2613 44.2128 39.6006ZM15.8398 38.6664C15.8398 38.4435 15.8398 38.2733 15.8398 38.1021C15.8398 35.5586 15.8398 33.014 15.8388 30.4705C15.8388 30.2697 15.8367 30.0679 15.8166 29.8682C15.7363 29.1063 15.1699 28.4659 14.4302 28.2884C13.2181 27.9967 12.1054 28.8685 12.1001 30.1461C12.0885 32.8915 12.0959 35.6368 12.098 38.3811C12.098 38.4752 12.1255 38.5682 12.1403 38.6664C13.3703 38.6664 14.5728 38.6664 15.8398 38.6664ZM42.9162 38.6611C42.9162 38.3769 42.9162 38.1074 42.9162 37.838C42.9162 35.2796 42.9225 32.7213 42.913 30.163C42.9088 28.8949 41.8436 28.0232 40.6432 28.2789C39.7502 28.4691 39.1838 29.1951 39.1807 30.1968C39.1733 32.8841 39.1775 35.5724 39.1786 38.2596C39.1786 38.3853 39.1933 38.5111 39.2018 38.6611C40.4403 38.6611 41.6534 38.6611 42.9162 38.6611Z" fill="black"/>
<path d="M0 13.004C0.287428 11.8057 0.582252 10.6084 0.859113 9.40799C1.3283 7.37803 1.78586 5.34596 2.25081 3.316C2.36811 2.80138 2.56254 2.64393 3.0909 2.64287C5.04795 2.6397 7.00393 2.64076 8.96098 2.64287C9.47877 2.64393 9.67321 2.78341 9.78628 3.27373C10.5292 6.4925 11.2678 9.71338 11.999 12.9353C12.147 13.5852 11.8913 13.8821 11.2171 13.8885C10.7162 13.8938 10.2153 13.8895 9.64785 13.8895C9.64785 14.0935 9.64785 14.2594 9.64785 14.4253C9.64785 16.5831 9.6489 18.7409 9.64573 20.8998C9.64573 21.071 9.64256 21.2485 9.6003 21.4123C9.51787 21.7314 9.28011 21.8995 8.96098 21.8794C8.626 21.8583 8.40198 21.6638 8.36182 21.3109C8.34597 21.1682 8.34914 21.0234 8.34914 20.8797C8.34808 18.7356 8.34914 16.5926 8.34914 14.4485C8.34914 14.2805 8.34914 14.1114 8.34914 13.917C7.77217 13.917 7.24909 13.917 6.69749 13.917C6.69749 21.3838 6.69749 28.8294 6.69749 36.3216C6.89509 36.3311 7.08953 36.3416 7.28397 36.349C8.95147 36.4135 10.1931 37.633 10.1952 39.2075C10.1963 39.7327 9.97543 39.9863 9.44496 39.9884C7.17195 39.9979 4.89895 39.9979 2.62595 39.9894C2.05532 39.9873 1.82812 39.7126 1.85877 39.1367C1.94225 37.5674 3.09936 36.4368 4.71297 36.3522C4.91269 36.3416 5.11241 36.3512 5.34172 36.3512C5.34172 28.858 5.34172 21.4007 5.34172 13.8885C5.14411 13.8885 4.9613 13.8885 4.77848 13.8885C3.484 13.8885 2.18847 13.8779 0.893985 13.8948C0.496658 13.9001 0.192323 13.7955 0 13.4362C0 13.2914 0 13.1477 0 13.004ZM1.46884 12.5655C4.52065 12.5655 7.52278 12.5655 10.5841 12.5655C9.92259 9.67111 9.26954 6.81163 8.61649 3.9532C6.87079 3.9532 5.17475 3.9532 3.44068 3.9532C2.78657 6.80951 2.13352 9.66266 1.46884 12.5655ZM8.78979 38.6685C8.52138 38.0937 8.14202 37.7259 7.59358 37.7006C6.54743 37.653 5.49705 37.6509 4.45196 37.7038C3.89295 37.7312 3.51465 38.1117 3.26526 38.6685C5.12615 38.6685 6.91834 38.6685 8.78979 38.6685Z" fill="black"/>
<path d="M18.834 1.42866C19.1626 1.74568 19.4828 2.0722 19.8263 2.37231C19.9203 2.45474 20.0852 2.49172 20.2172 2.49172C25.0803 2.49806 29.9433 2.49806 34.8053 2.48961C34.9469 2.48961 35.117 2.42621 35.2237 2.33427C35.5555 2.04579 35.8641 1.72983 36.2582 1.35046C36.0194 1.32933 35.899 1.31031 35.7785 1.30925C35.2322 1.30503 34.6848 1.31771 34.1385 1.30186C33.6862 1.28917 33.4241 1.0419 33.4178 0.664654C33.4114 0.285291 33.6714 0.0137146 34.1173 0.00843096C35.34 -0.00530639 36.5636 -0.00636311 37.7863 0.00948768C38.2406 0.015828 38.4541 0.260987 38.4858 0.72066C38.4932 0.821048 38.489 0.922493 38.489 1.02288C38.489 5.85737 38.489 10.6908 38.489 15.5253C38.489 16.3886 38.3262 16.5482 37.4502 16.5482C30.8183 16.5482 24.1852 16.5482 17.5533 16.5482C16.6836 16.5482 16.5293 16.3929 16.5293 15.5126C16.5293 10.6929 16.5293 5.87322 16.5293 1.05353C16.5293 0.148975 16.6783 -2.27918e-05 17.586 -2.27918e-05C22.0887 -2.27918e-05 26.5924 -2.27918e-05 31.0951 -2.27918e-05C31.7883 -2.27918e-05 32.1138 0.209208 32.1138 0.651973C32.1138 1.09474 31.7883 1.30503 31.0962 1.30503C27.1969 1.30503 23.2986 1.30503 19.3993 1.30503C19.2303 1.30503 19.0601 1.30503 18.8911 1.30503C18.8699 1.34941 18.852 1.38851 18.834 1.42866ZM34.6658 3.83693C29.8651 3.83693 25.113 3.83693 20.362 3.83693C20.362 5.98524 20.362 8.09867 20.362 10.303C20.9443 9.65839 21.461 9.08248 21.9809 8.50974C22.988 7.40124 23.9792 7.40652 24.9746 8.51925C25.5843 9.20083 26.1983 9.87713 26.8323 10.5809C27.0151 10.3791 27.1694 10.2111 27.3226 10.042C28.2948 8.96307 29.2575 7.87465 30.2423 6.80736C30.9715 6.01905 32.1159 5.98207 32.8641 6.69852C33.0817 6.9067 33.2794 7.13706 33.4833 7.36003C33.8553 7.76686 34.2251 8.17687 34.6647 8.66191C34.6658 6.98384 34.6658 5.42517 34.6658 3.83693ZM34.688 12.7514C34.688 12.0476 34.6964 11.3893 34.6795 10.731C34.6763 10.6211 34.577 10.4995 34.4956 10.4087C33.7063 9.53159 32.9148 8.65768 32.118 7.788C31.7355 7.37059 31.4692 7.37694 31.0814 7.80596C30.2614 8.71263 29.4445 9.62246 28.6277 10.5323C28.3223 10.8715 28.0211 11.2139 27.7147 11.5594C27.9894 11.8659 28.2525 12.1332 28.4829 12.427C28.6773 12.6753 28.8982 12.7641 29.2173 12.7599C30.7707 12.7419 32.3241 12.7514 33.8785 12.7514C34.1321 12.7514 34.3879 12.7514 34.688 12.7514ZM18.7262 15.2231C24.6343 15.2231 30.3903 15.2231 36.2942 15.2231C35.8514 14.8057 35.5059 14.4654 35.1402 14.1473C35.0568 14.0744 34.9035 14.0543 34.782 14.0543C29.9338 14.0501 25.0866 14.0491 20.2384 14.0565C20.0957 14.0565 19.9224 14.1104 19.8168 14.2012C19.4701 14.4992 19.1468 14.8258 18.7262 15.2231ZM20.2426 12.7165C22.5706 12.7165 24.7548 12.7165 27.0035 12.7165C25.9119 11.5034 24.87 10.3379 23.8185 9.18075C23.5501 8.88593 23.2934 8.98209 23.0535 9.25156C22.2113 10.1941 21.3564 11.1262 20.5248 12.0783C20.3916 12.2294 20.3515 12.4619 20.2426 12.7165ZM17.8629 2.2212C17.8629 6.30859 17.8629 10.2628 17.8629 14.3291C18.2549 13.9265 18.5836 13.6074 18.8868 13.266C18.9703 13.172 19.0168 13.0103 19.0179 12.8803C19.0253 9.81584 19.0253 6.75241 19.0179 3.68793C19.0179 3.55584 18.9777 3.3931 18.8953 3.29906C18.592 2.95562 18.2634 2.63438 17.8629 2.2212ZM37.167 2.36069C37.13 2.33533 37.0941 2.30891 37.0571 2.28355C36.7739 2.58788 36.4759 2.87954 36.2149 3.20078C36.0997 3.34238 35.9983 3.54633 35.9972 3.72174C35.9846 6.7577 35.9867 9.79471 35.9909 12.8307C35.9909 12.9543 35.992 13.116 36.0638 13.1952C36.3967 13.5598 36.7549 13.9011 37.167 14.3143C37.167 10.2565 37.167 6.30859 37.167 2.36069Z" fill="black"/>
<path d="M26.8381 8.17159C25.8194 8.17371 25.0036 7.35792 25.0078 6.33924C25.0121 5.31423 25.8204 4.5164 26.8497 4.52274C27.8472 4.52908 28.6567 5.3343 28.6651 6.32973C28.6736 7.33996 27.8525 8.16842 26.8381 8.17159ZM26.819 6.87817C27.1403 6.84964 27.3316 6.68268 27.3611 6.36672C27.3886 6.06661 27.1318 5.81194 26.8233 5.82568C26.4978 5.83941 26.3171 6.02434 26.316 6.34664C26.3139 6.67211 26.5115 6.83484 26.819 6.87817Z" fill="black"/>
</g>
<defs>
<clipPath id="clip0_400_15169">
<rect width="44.2121" height="40" fill="white"/>
</clipPath>
</defs>
</svg>
