<svg width="62" height="62" viewBox="0 0 62 62" fill="none" xmlns="http://www.w3.org/2000/svg">
<g clip-path="url(#clip0_400_15196)">
<path d="M0 31.6056C0.517044 29.9814 1.65676 29.2023 3.32385 28.9799C4.97982 28.7591 6.61753 28.3977 8.26317 28.0999C8.95336 27.9752 9.07567 27.698 8.67855 27.1245C7.6119 25.5822 6.53652 24.0453 5.47622 22.499C4.48661 21.055 4.61845 19.5079 5.84315 18.2697C7.19017 16.9068 8.54671 15.5518 9.91041 14.2056C11.0986 13.0333 12.6719 12.888 14.0444 13.8403C15.6011 14.9212 17.1355 16.0347 18.6835 17.1284C19.2259 17.512 19.5111 17.3936 19.6286 16.7519C19.9701 14.8886 20.291 13.0214 20.6555 11.1629C20.9971 9.42433 22.1757 8.47443 23.9294 8.46808C24.9984 8.46411 26.0682 8.46252 27.1373 8.46887C27.9108 8.47364 28.3516 8.85566 28.3548 9.50296C28.358 10.1542 27.9196 10.5426 27.1492 10.5482C26.1199 10.5553 25.0913 10.545 24.062 10.5521C23.2281 10.5585 22.8985 10.8341 22.7476 11.6553C22.4672 13.181 22.1964 14.7091 21.9239 16.2364C21.9176 16.2722 21.9382 16.3135 21.9525 16.3778C22.8548 16.2372 23.7554 16.0697 24.6624 15.9608C26.9474 15.686 29.2118 15.8425 31.4507 16.3699C32.2839 16.5661 32.6873 17.0553 32.5523 17.6835C32.4078 18.3555 31.8367 18.6223 30.9726 18.4206C21.1146 16.1197 11.7594 22.1273 9.74997 32.0488C7.87162 41.3317 14.3795 50.8252 23.7523 52.2953C30.8153 53.4032 36.5449 51.0063 40.9084 45.3331C41.1387 45.0336 41.4962 44.6937 41.8281 44.6532C42.1458 44.6143 42.5954 44.8637 42.8313 45.1266C43.1569 45.4895 43.029 45.9518 42.7494 46.3529C41.6907 47.8675 40.4605 49.2232 39.0062 50.3653C38.2978 50.9213 37.5504 51.4288 36.7633 51.9998C38.1993 52.9926 39.5924 53.9799 41.0133 54.9242C41.5065 55.2514 41.9782 55.041 42.3722 54.6462C43.4269 53.5899 44.4888 52.5399 45.5364 51.4764C45.8986 51.1095 46.3076 50.9562 46.7953 51.1317C47.4632 51.3716 47.7015 52.2468 47.1884 52.779C45.9701 54.0418 44.7461 55.3046 43.446 56.4801C42.4127 57.4141 40.8973 57.4022 39.6837 56.5754C38.1167 55.5088 36.5664 54.4175 35.0073 53.3405C34.3957 52.918 34.1424 53.0268 34.0058 53.7638C33.7016 55.4087 33.3378 57.0448 33.1146 58.7008C32.8851 60.4036 32.075 61.5378 30.3944 62.0008C28.0125 62.0008 25.6314 62.0008 23.2495 62.0008C21.5356 61.483 20.7644 60.2789 20.5515 58.5419C20.3537 56.9257 19.994 55.3293 19.6961 53.7257C19.5675 53.0347 19.2887 52.9275 18.7097 53.3278C17.1856 54.3825 15.6678 55.4468 14.1381 56.4944C12.6354 57.5237 11.0962 57.3871 9.8143 56.1147C8.49747 54.8082 7.1854 53.497 5.87969 52.1809C4.58986 50.8808 4.46834 49.3217 5.5334 47.8087C6.57702 46.3259 7.63017 44.8494 8.67458 43.3666C9.05899 42.8217 8.94383 42.531 8.2862 42.4103C6.6628 42.1117 5.04495 41.763 3.40963 41.5478C1.70839 41.3238 0.502748 40.5725 0 38.8712C0 36.4496 0 34.0272 0 31.6056ZM31.712 54.0196C28.3914 54.8527 25.1668 54.8321 21.8707 54.0299C22.1916 55.7979 22.4743 57.4649 22.8047 59.1217C22.9135 59.665 23.3607 59.9016 23.8952 59.904C25.8323 59.9128 27.7695 59.9159 29.7066 59.9016C30.2999 59.8969 30.7034 59.5863 30.8153 58.9835C31.1148 57.3633 31.4023 55.7399 31.712 54.0196ZM7.97804 40.1054C7.15601 36.7959 7.16872 33.5705 7.9709 30.2816C6.24265 30.593 4.60018 30.8805 2.96168 31.1886C2.41525 31.2911 2.11027 31.6747 2.1055 32.2156C2.08644 34.1924 2.08883 36.1692 2.10233 38.1453C2.1063 38.6885 2.39778 39.0904 2.93706 39.1945C4.57635 39.5106 6.22279 39.7917 7.97804 40.1054ZM16.96 18.4253C15.4843 17.4119 14.0896 16.4263 12.6632 15.4899C12.1811 15.173 11.7038 15.3588 11.3043 15.7615C9.98268 17.0918 8.65076 18.411 7.32916 19.7422C6.78034 20.295 6.74063 20.7135 7.17666 21.3545C7.83349 22.321 8.50541 23.2781 9.17336 24.2367C9.43069 24.606 9.69517 24.9706 9.993 25.3892C11.7419 22.4577 14.034 20.183 16.96 18.4253ZM10.0422 45.0416C9.02325 46.5196 8.0535 47.9 7.1163 49.3018C6.8272 49.7339 6.90424 50.2033 7.27277 50.575C8.66267 51.9784 10.0589 53.3747 11.4615 54.7646C11.8102 55.1101 12.2605 55.2268 12.6783 54.9496C14.1111 53.9973 15.5201 53.0101 17.0013 51.9927C14.0857 50.2525 11.8158 47.9802 10.0422 45.0416Z" fill="black"/>
<path d="M61.9998 12.1096C61.5479 13.0365 60.8975 13.6727 59.7847 13.683C59.672 13.6838 59.5052 13.8355 59.4567 13.9554C58.3599 16.6598 57.2758 19.3689 56.1765 22.1074C57.4497 22.5466 57.8595 23.4743 57.7944 24.7196C57.7515 25.5448 57.7944 26.374 57.7841 27.2016C57.7674 28.5732 56.9192 29.4088 55.5412 29.4254C55.2624 29.4286 54.9836 29.4262 54.6342 29.4262C54.6342 30.3602 54.6349 31.2426 54.6342 32.1242C54.6326 33.9232 53.9082 34.6547 52.1125 34.6745C51.9338 34.6769 51.7551 34.6912 51.5112 34.7031C51.5009 34.9366 51.4834 35.1487 51.4826 35.3615C51.4803 37.1581 51.4699 38.9538 51.4882 40.7496C51.4938 41.2857 51.3024 41.6685 50.8727 41.9814C49.8783 42.7058 48.9165 43.4762 47.9086 44.1814C47.4495 44.5023 47.2391 44.8438 47.2748 45.422C47.3288 46.3068 47.2955 47.1971 47.2867 48.0851C47.2788 48.9023 46.8936 49.3789 46.255 49.3916C45.599 49.4043 45.1844 48.8976 45.1804 48.0636C45.1757 47.0947 45.1637 46.1257 45.1876 45.1576C45.1963 44.7986 45.0891 44.5682 44.7928 44.3538C43.7468 43.5977 42.7366 42.7907 41.6834 42.045C41.1656 41.678 40.9647 41.2309 40.9718 40.6114C40.9917 38.876 40.979 37.1406 40.979 35.4044C40.979 35.1868 40.979 34.9692 40.979 34.6705C40.5945 34.6705 40.2768 34.6817 39.96 34.6689C38.6836 34.6173 37.8695 33.804 37.8306 32.5102C37.8052 31.6636 37.8259 30.8153 37.8227 29.9679C37.8219 29.8106 37.8044 29.6534 37.7901 29.4278C37.4724 29.4278 37.1754 29.4318 36.8791 29.427C35.6314 29.4056 34.7458 28.6201 34.6886 27.3914C34.6378 26.3041 34.6473 25.2113 34.6886 24.1232C34.7276 23.1018 35.3256 22.4608 36.3168 22.1122C35.7061 20.5817 35.104 19.0719 34.5004 17.5636C34.0366 16.404 33.5831 15.2397 33.0883 14.0936C33.0096 13.9109 32.7491 13.7172 32.5506 13.6894C31.2314 13.5059 30.4919 12.7109 30.4888 11.3742C30.4816 8.46808 30.5269 5.5612 30.4681 2.65591C30.4395 1.36052 30.8763 0.474155 32.0899 0C41.5349 0 50.9807 0 60.4257 0C61.1619 0.312927 61.6837 0.84109 61.9998 1.57416C61.9998 5.08625 61.9998 8.59754 61.9998 12.1096ZM59.861 11.5211C59.861 8.37278 59.861 5.26019 59.861 2.1333C50.7472 2.1333 41.6795 2.1333 32.6229 2.1333C32.6229 5.29196 32.6229 8.40693 32.6229 11.5211C41.7247 11.5211 50.7782 11.5211 59.861 11.5211ZM35.2311 13.6973C35.2692 13.8291 35.2851 13.9054 35.3137 13.9769C36.3367 16.5391 37.3708 19.0981 38.3747 21.6682C38.52 22.0415 38.7448 22.0653 39.0656 22.0653C43.8477 22.0597 48.6298 22.0558 53.411 22.0725C53.832 22.074 53.998 21.9263 54.1433 21.5514C55.0813 19.1282 56.0471 16.7162 57.0017 14.3001C57.0732 14.119 57.1288 13.9308 57.2083 13.6981C49.8584 13.6973 42.5817 13.6973 35.2311 13.6973ZM39.9663 32.5261C44.198 32.5261 48.3589 32.5261 52.5128 32.5261C52.5128 31.4777 52.5128 30.4778 52.5128 29.4262C52.18 29.4262 51.8821 29.4262 51.5843 29.4262C49.8704 29.4262 48.1556 29.4302 46.4417 29.4238C45.6895 29.4215 45.2074 29.0196 45.186 28.4033C45.1638 27.7647 45.649 27.3485 46.4425 27.3279C46.6037 27.3239 46.7649 27.3263 46.9261 27.3263C49.6083 27.3263 52.2904 27.3263 54.9733 27.3263C55.2044 27.3263 55.4363 27.3263 55.6587 27.3263C55.6587 26.2223 55.6587 25.2224 55.6587 24.2232C49.3581 24.2232 43.098 24.2232 36.8291 24.2232C36.8291 25.2668 36.8291 26.2644 36.8291 27.3263C37.084 27.3263 37.3017 27.3263 37.5185 27.3263C38.9703 27.3263 40.423 27.3183 41.8748 27.3311C42.6222 27.3374 43.0995 27.7719 43.0876 28.389C43.0757 29.0045 42.5897 29.4151 41.8439 29.4238C41.226 29.431 40.6072 29.4254 39.9671 29.4254C39.9663 30.5 39.9663 31.5008 39.9663 32.5261ZM43.0972 34.715C43.0972 36.5926 43.0908 38.4407 43.1107 40.2889C43.1123 40.4263 43.2822 40.5923 43.4141 40.6932C44.2281 41.319 45.0613 41.9203 45.8698 42.5533C46.1375 42.7629 46.3241 42.7804 46.6005 42.5628C47.4074 41.9274 48.243 41.3302 49.0547 40.7011C49.1992 40.5891 49.3787 40.4001 49.3803 40.2444C49.4034 38.4153 49.3946 36.5854 49.3946 34.715C47.282 34.715 45.2193 34.715 43.0972 34.715Z" fill="black"/>
<path d="M26.8011 42.0267C22.9951 42.0061 19.9564 38.9491 19.9747 35.1598C19.993 31.4063 23.0849 28.3398 26.8233 28.3684C30.5808 28.397 33.6426 31.4746 33.6347 35.2146C33.6267 38.961 30.5308 42.0474 26.8011 42.0267ZM31.5109 35.19C31.5037 32.5571 29.4022 30.4739 26.7677 30.489C24.1801 30.504 22.0754 32.6064 22.0619 35.1892C22.0484 37.776 24.2016 39.9363 26.7955 39.9371C29.4054 39.9387 31.518 37.8118 31.5109 35.19Z" fill="black"/>
<path d="M12.6063 35.2789C12.7572 31.8081 13.5721 28.7416 15.7531 26.1524C16.7681 24.9467 17.9968 24.0119 19.3907 23.2908C19.9879 22.9818 20.5725 23.1359 20.864 23.6497C21.1642 24.1787 20.9855 24.8061 20.3763 25.1326C16.5966 27.1618 15.0518 30.5095 14.7595 34.603C14.7325 34.985 14.7373 35.3702 14.6975 35.7514C14.6324 36.3821 14.1972 36.7935 13.6396 36.7808C13.0591 36.768 12.6341 36.3074 12.6063 35.6553C12.6 35.4742 12.6063 35.2924 12.6063 35.2789Z" fill="black"/>
<path d="M23.1379 23.1169C22.5843 23.1288 22.0903 22.6618 22.0672 22.1051C22.0442 21.5475 22.4993 21.0599 23.0664 21.036C23.6684 21.0106 24.1616 21.4729 24.1624 22.0646C24.164 22.6253 23.697 23.105 23.1379 23.1169Z" fill="black"/>
<path d="M49.3996 4.21738C51.818 4.21738 54.2364 4.21976 56.6557 4.21579C57.1211 4.215 57.5484 4.36352 57.6627 4.81702C57.7461 5.14742 57.7183 5.61125 57.5357 5.87255C57.3673 6.114 56.9273 6.28158 56.6056 6.28317C51.7886 6.30859 46.9716 6.30303 42.1546 6.29747C41.4493 6.29667 40.995 5.87255 40.9903 5.2602C40.9863 4.64785 41.4382 4.22135 42.1427 4.21897C44.5627 4.21182 46.9811 4.21658 49.3996 4.21738Z" fill="black"/>
<path d="M36.8013 4.22213C37.1643 4.22213 37.528 4.20307 37.8894 4.2261C38.4716 4.26343 38.8687 4.68914 38.8727 5.2451C38.8766 5.79312 38.4763 6.26251 37.9061 6.28633C37.142 6.3181 36.3732 6.32207 35.61 6.28157C35.0508 6.25218 34.6545 5.74308 34.6831 5.203C34.7109 4.67802 35.1072 4.27693 35.6521 4.22292C35.6918 4.21895 35.7323 4.21816 35.7728 4.21736C36.1151 4.21736 36.4582 4.21736 36.8005 4.21736C36.8013 4.21975 36.8013 4.22054 36.8013 4.22213Z" fill="black"/>
</g>
<defs>
<clipPath id="clip0_400_15196">
<rect width="62" height="62" fill="white"/>
</clipPath>
</defs>
</svg>
