<svg width="73" height="73" viewBox="0 0 73 73" fill="none" xmlns="http://www.w3.org/2000/svg">
<g clip-path="url(#clip0_400_15191)">
<path d="M38.6325 0C40.0163 0.186025 41.4127 0.308077 42.7822 0.567334C54.318 2.75586 62.9473 9.02515 68.6357 19.2624C71.8797 25.0999 73.3518 31.4474 72.9276 38.1056C72.0598 51.7435 65.5634 61.9681 53.6699 68.66C47.8721 71.9217 41.5289 73.335 34.8944 72.9335C21.9563 72.1524 12.0198 66.16 5.17238 55.1702C2.1506 50.3193 0.530285 44.9608 0.121208 39.2487C0.106057 39.0416 0.0412444 38.8388 0 38.6334C0 37.2075 0 35.7824 0 34.3565C0.0412444 34.152 0.106899 33.9483 0.121208 33.742C0.479781 28.6276 1.83664 23.7817 4.32392 19.3095C10.0266 9.05377 18.6509 2.76091 30.2086 0.567334C31.5772 0.307236 32.9728 0.186025 34.3566 0C35.7816 0 37.2075 0 38.6325 0ZM36.4853 69.8325C54.823 69.8443 69.7956 54.8883 69.8309 36.5231C69.8654 18.1951 54.919 3.21629 36.5391 3.15905C18.2031 3.10182 3.1472 18.1412 3.15898 36.5038C3.16992 54.8546 18.1341 69.8199 36.4853 69.8325Z" fill="black"/>
<path d="M44.4167 44.417C44.4167 44.7933 44.4167 45.0719 44.4167 45.3505C44.4167 48.5331 44.4192 51.7166 44.4159 54.8992C44.4142 56.5499 43.899 57.0608 42.2417 57.0608C38.3942 57.0625 34.5458 57.0633 30.6983 57.0608C29.0948 57.06 28.578 56.5398 28.5763 54.9186C28.573 51.736 28.5755 48.5525 28.5755 45.3699C28.5755 45.0887 28.5755 44.8084 28.5755 44.417C28.2371 44.417 27.9627 44.417 27.6883 44.417C24.5058 44.417 21.3224 44.4187 18.1398 44.4162C16.4236 44.4153 15.932 43.9254 15.9312 42.2167C15.9295 38.3691 15.9286 34.5207 15.932 30.6731C15.9328 29.1125 16.4648 28.5788 18.0279 28.5763C21.2348 28.5712 24.441 28.5746 27.6479 28.5746C27.9265 28.5746 28.2043 28.5746 28.5763 28.5746C28.5763 28.216 28.5763 27.9391 28.5763 27.6622C28.5763 24.4795 28.5747 21.2961 28.5772 18.1134C28.5789 16.4367 29.078 15.9308 30.7303 15.93C34.5778 15.9283 38.4262 15.9283 42.2737 15.93C43.8957 15.9308 44.415 16.4426 44.4167 18.0512C44.4209 21.2338 44.4184 24.4173 44.4184 27.5999C44.4184 27.8827 44.4184 28.1655 44.4184 28.5746C44.7399 28.5746 45.0118 28.5746 45.2845 28.5746C48.4915 28.5746 51.6976 28.5729 54.9046 28.5755C56.466 28.5771 57.0619 29.1706 57.0627 30.7253C57.0653 34.5729 57.0653 38.4213 57.0627 42.2689C57.0619 43.9162 56.5535 44.4153 54.8734 44.4162C51.7144 44.4187 48.5555 44.417 45.3965 44.417C45.1111 44.417 44.8283 44.417 44.4167 44.417ZM31.7589 53.8521C34.9717 53.8521 38.0727 53.8521 41.2316 53.8521C41.2316 53.5516 41.2316 53.294 41.2316 53.0373C41.2316 49.8294 41.23 46.6224 41.2325 43.4145C41.2333 41.7933 41.7931 41.2336 43.4142 41.2319C46.6456 41.2293 49.877 41.231 53.1075 41.231C53.3836 41.231 53.6597 41.231 53.9635 41.231C53.9635 38.0358 53.9635 34.9365 53.9635 31.7581C53.6681 31.7581 53.4122 31.7581 53.1571 31.7581C49.9258 31.7581 46.6944 31.7606 43.4639 31.7572C41.8873 31.7555 41.3385 31.1975 41.3377 29.6074C41.3368 26.376 41.3377 23.1445 41.3377 19.9139C41.3377 19.6606 41.3377 19.4072 41.3377 19.1387C38.1088 19.1387 34.9633 19.1387 31.7589 19.1387C31.7589 19.4392 31.7589 19.6968 31.7589 19.9535C31.7589 23.1614 31.7606 26.3684 31.7581 29.5763C31.7572 31.1975 31.1975 31.7572 29.5755 31.7581C26.3441 31.7606 23.1127 31.7589 19.8822 31.7589C19.6331 31.7589 19.3839 31.7589 19.1381 31.7589C19.1381 34.9718 19.1381 38.0728 19.1381 41.2319C19.4386 41.2319 19.6962 41.2319 19.9529 41.2319C23.1843 41.2319 26.4156 41.2293 29.6462 41.2336C31.1714 41.2352 31.7547 41.8194 31.7564 43.3438C31.7606 46.4321 31.7572 49.5213 31.7572 52.6097C31.7589 53.0087 31.7589 53.4085 31.7589 53.8521Z" fill="black"/>
</g>
<defs>
<clipPath id="clip0_400_15191">
<rect width="73" height="73" fill="white"/>
</clipPath>
</defs>
</svg>
