<svg width="44" height="44" viewBox="0 0 44 44" fill="none" xmlns="http://www.w3.org/2000/svg">
<g clip-path="url(#clip0_400_15222)">
<path d="M23.285 0C24.013 0.19 24.766 0.315 25.465 0.581C27.828 1.481 29.447 3.153 30.342 5.514C30.453 5.807 30.6 5.962 30.899 6.054C34.669 7.207 38.436 8.371 42.204 9.534C42.365 9.584 42.529 9.628 42.681 9.698C43.214 9.945 43.362 10.538 42.989 10.995C42.777 11.255 42.524 11.483 42.286 11.722C40.865 13.142 39.442 14.561 37.987 16.013C38.106 16.14 38.204 16.252 38.309 16.358C39.789 17.84 41.271 19.321 42.75 20.803C43.474 21.529 43.317 22.176 42.343 22.485C40.779 22.98 39.213 23.471 37.628 23.971C37.628 24.155 37.628 24.322 37.628 24.49C37.628 28.651 37.628 32.812 37.628 36.973C37.628 37.75 37.484 37.953 36.746 38.198C31.887 39.816 27.026 41.43 22.17 43.056C21.775 43.188 21.424 43.194 21.03 43.045C16.711 41.416 12.387 39.8 8.064 38.179C7.4 37.93 7.257 37.723 7.257 37.023C7.256 32.961 7.257 28.898 7.257 24.836C7.257 24.668 7.257 24.501 7.257 24.318C5.802 23.832 4.366 23.352 2.929 22.872C2.862 22.85 2.796 22.827 2.73 22.803C2.015 22.548 1.825 22.044 2.217 21.386C3.173 19.782 4.138 18.182 5.099 16.581C5.178 16.45 5.253 16.316 5.372 16.11C5.064 15.828 4.744 15.555 4.446 15.259C3.15 13.971 1.858 12.678 0.571 11.381C0.366 11.171 0.189 10.936 0 10.715C0 10.546 0 10.378 0 10.209C0.203 9.818 0.559 9.661 0.96 9.537C5.393 8.162 9.823 6.777 14.256 5.403C14.522 5.321 14.664 5.178 14.781 4.928C15.782 2.791 17.387 1.295 19.615 0.507C20.255 0.28 20.936 0.166 21.598 0C22.16 0 22.723 0 23.285 0ZM22.465 41.173C26.963 39.674 31.443 38.18 35.925 36.686C35.925 32.629 35.925 28.598 35.925 24.516C35.727 24.573 35.555 24.619 35.386 24.672C32.442 25.596 29.498 26.521 26.553 27.444C25.95 27.633 25.689 27.553 25.301 27.071C24.834 26.491 24.37 25.908 23.905 25.327C23.444 24.751 22.982 24.175 22.465 23.529C22.465 29.46 22.465 35.296 22.465 41.173ZM20.736 24.305C20.712 24.3 20.688 24.294 20.664 24.289C20.086 25.252 19.508 26.215 18.928 27.177C18.503 27.883 18.253 27.978 17.472 27.719C14.782 26.825 12.092 25.929 9.402 25.034C9.26 24.987 9.119 24.94 8.961 24.888C8.952 24.989 8.943 25.044 8.943 25.1C8.942 28.868 8.946 32.636 8.934 36.404C8.933 36.685 9.068 36.757 9.28 36.836C12.987 38.222 16.692 39.612 20.398 41C20.499 41.038 20.606 41.062 20.735 41.099C20.736 35.478 20.736 29.892 20.736 24.305ZM22.44 15.184C26.12 15.192 29.17 12.174 29.189 8.503C29.208 4.733 26.203 1.694 22.45 1.688C18.778 1.682 15.706 4.719 15.694 8.367C15.681 12.125 18.7 15.176 22.44 15.184ZM40.779 21.205C39.443 19.874 38.161 18.613 36.904 17.33C36.65 17.071 36.442 17.021 36.102 17.135C32.473 18.357 28.838 19.563 25.205 20.774C24.49 21.012 23.777 21.256 23.032 21.508C23.143 21.657 23.223 21.77 23.308 21.877C24.246 23.051 25.197 24.216 26.116 25.406C26.332 25.685 26.512 25.696 26.817 25.599C29.463 24.757 32.115 23.932 34.765 23.1C36.742 22.479 38.718 21.854 40.779 21.205ZM4.119 21.49C8.665 23.005 13.158 24.503 17.667 26.006C18.561 24.512 19.437 23.049 20.33 21.558C15.781 20.042 11.289 18.546 6.786 17.046C5.892 18.535 5.019 19.99 4.119 21.49ZM34.057 16.048C33.917 15.98 33.873 15.953 33.825 15.937C32.175 15.384 30.527 14.825 28.87 14.292C28.731 14.247 28.488 14.33 28.374 14.438C24.779 17.833 19.451 17.661 16.148 14.022C15.954 13.808 15.801 13.779 15.538 13.868C13.544 14.544 11.545 15.204 9.548 15.871C9.438 15.908 9.334 15.963 9.173 16.033C9.311 16.092 9.383 16.129 9.459 16.154C13.413 17.473 17.367 18.793 21.326 20.1C21.507 20.16 21.744 20.141 21.93 20.081C23.639 19.526 25.342 18.954 27.046 18.386C29.348 17.62 31.65 16.851 34.057 16.048ZM2.466 10.839C2.527 10.923 2.56 10.983 2.607 11.029C3.888 12.312 5.165 13.598 6.462 14.865C6.563 14.964 6.821 14.987 6.971 14.939C8.48 14.455 9.983 13.948 11.487 13.448C12.63 13.068 13.773 12.687 14.849 12.328C14.605 11.473 14.299 10.667 14.158 9.833C14.016 8.992 14.037 8.123 13.986 7.248C10.178 8.435 6.34 9.631 2.466 10.839ZM29.681 12.753C29.827 12.811 29.927 12.856 30.031 12.891C32.082 13.574 34.135 14.25 36.181 14.945C36.463 15.041 36.635 14.997 36.84 14.788C38.043 13.565 39.261 12.357 40.472 11.143C40.556 11.058 40.629 10.962 40.73 10.844C37.426 9.825 34.172 8.822 30.868 7.803C30.932 9.593 30.569 11.229 29.681 12.753Z" fill="black"/>
<path d="M18.1533 38.3191C18.0463 38.2891 17.8803 38.2571 17.7243 38.1991C16.1733 37.6201 14.6243 37.0371 13.0763 36.4511C12.9203 36.3921 12.7573 36.3231 12.6333 36.2171C12.3523 35.9781 12.2453 35.6651 12.3803 35.3081C12.5123 34.9611 12.7743 34.7571 13.1513 34.7621C13.3283 34.7641 13.5123 34.8171 13.6803 34.8801C15.2183 35.4521 16.7543 36.0301 18.2893 36.6111C18.4453 36.6701 18.6093 36.7351 18.7353 36.8401C19.0343 37.0871 19.1393 37.4111 18.9943 37.7831C18.8603 38.1341 18.5893 38.3031 18.1533 38.3191Z" fill="black"/>
<path d="M18.1572 34.7721C17.3832 34.4581 16.5962 34.1711 15.8412 33.8161C15.5072 33.6591 15.4332 33.1871 15.5852 32.8471C15.7402 32.5011 16.1142 32.2541 16.4662 32.3671C17.2092 32.6071 17.9442 32.8781 18.6602 33.1891C19.0162 33.3431 19.1342 33.7741 19.0162 34.1271C18.8932 34.4951 18.5682 34.7201 18.1572 34.7721Z" fill="black"/>
<path d="M13.1435 32.8959C12.6995 32.8849 12.3125 32.4819 12.3245 32.0419C12.3365 31.5969 12.7385 31.2109 13.1785 31.2219C13.6225 31.2339 14.0085 31.6359 13.9985 32.0759C13.9875 32.5199 13.5835 32.9069 13.1435 32.8959Z" fill="black"/>
<path d="M21.6106 9.83594C22.0306 9.38894 22.3846 8.99394 22.7586 8.61694C23.7766 7.58994 24.8006 6.56894 25.8256 5.54994C25.9636 5.41194 26.1096 5.27094 26.2766 5.17594C26.6236 4.97894 26.9636 5.04494 27.2406 5.31994C27.5176 5.59394 27.5856 5.93194 27.3936 6.28194C27.3076 6.43894 27.1786 6.57594 27.0516 6.70494C25.5056 8.25594 23.9576 9.80394 22.4076 11.3519C21.8016 11.9569 21.4006 11.9589 20.7996 11.3619C20.3416 10.9069 19.8806 10.4539 19.4316 9.99094C18.9886 9.53494 18.9566 9.05794 19.3276 8.69194C19.6996 8.32494 20.1706 8.35994 20.6266 8.80694C20.9376 9.11094 21.2286 9.43494 21.6106 9.83594Z" fill="black"/>
</g>
<defs>
<clipPath id="clip0_400_15222">
<rect width="43.2" height="43.154" fill="white"/>
</clipPath>
</defs>
</svg>
