<svg width="40" height="42" viewBox="0 0 40 42" fill="none" xmlns="http://www.w3.org/2000/svg">
<g clip-path="url(#clip0_400_15185)">
<path d="M21.2569 0C21.5926 0.154756 21.9562 0.268327 22.2564 0.471756C23.014 0.984697 23.313 1.74475 23.318 2.62835C23.3244 3.77654 23.3244 4.92473 23.318 6.07292C23.313 7.14872 22.8582 7.96119 21.8662 8.4654C21.7636 8.51781 21.6673 8.6863 21.6635 8.80486C21.6432 9.41889 21.6395 10.0354 21.6635 10.6495C21.6699 10.8229 21.7585 11.0164 21.8662 11.1599C23.09 12.7836 24.3075 14.411 25.5629 16.011C26.3167 16.9732 26.6664 18.0328 26.655 19.2409C26.6347 21.2902 26.6499 23.3407 26.6499 25.3912C26.6499 25.5397 26.6499 25.6895 26.6499 25.9091C26.8311 25.813 26.9603 25.7481 27.087 25.677C28.1942 25.0555 29.2812 24.3928 30.4125 23.8174C34.3309 21.8293 39.2223 24.3004 39.9102 28.5924C40.3561 31.373 39.1374 33.9465 36.6252 35.3967C33.3136 37.3087 29.9894 39.2019 26.6512 41.069C23.4561 42.8562 19.8114 42.01 17.7109 39.021C17.5487 38.7913 17.3701 38.7913 17.1484 38.7913C12.8753 38.7926 8.60214 38.7976 4.329 38.7888C2.56426 38.7851 1.22772 38.0263 0.444795 36.455C0.212959 35.9907 0.053334 35.4441 0.0381317 34.9299C-0.0138098 33.1552 0.00899377 31.3768 0.00899377 29.6008C0.00646004 26.1151 0.0216624 22.6306 0.000125716 19.146C-0.00747547 17.9891 0.329511 16.9832 1.04022 16.0672C2.29569 14.4497 3.53088 12.8185 4.75594 11.1799C4.89783 10.9889 4.97637 10.7168 4.99284 10.4772C5.02705 9.94556 4.99537 9.41016 5.00678 8.87725C5.01058 8.66633 4.96244 8.54153 4.74707 8.43295C3.83999 7.98241 3.35605 7.24108 3.34465 6.23516C3.32945 4.99213 3.32438 3.74784 3.34338 2.5048C3.36365 1.26925 4.03889 0.431819 5.24875 0.0773779C5.31463 0.0574094 5.37543 0.0262087 5.43878 0C10.7115 0 15.9842 0 21.2569 0ZM1.69139 32.2167C1.80541 32.2229 1.87382 32.2292 1.94223 32.2292C7.00589 32.2292 12.0708 32.2329 17.1345 32.2179C17.2979 32.2179 17.5234 32.0844 17.6159 31.9471C18.1353 31.1721 18.7459 30.4819 19.5542 30.0039C21.2417 29.0055 22.9456 28.0358 24.6495 27.0673C24.8953 26.9275 24.9928 26.7778 24.9903 26.4932C24.9764 24.5251 24.9827 22.5569 24.9827 20.5888C24.9827 20.4577 24.9827 20.3279 24.9827 20.1981C17.1826 20.1981 9.44587 20.1981 1.69012 20.1981C1.69139 24.2093 1.69139 28.1943 1.69139 32.2167ZM6.6689 8.70377C6.6689 9.39144 6.6499 10.0454 6.67524 10.6969C6.69424 11.1861 6.55362 11.5892 6.24957 11.9811C4.91176 13.7071 3.59676 15.4506 2.27415 17.1879C1.9739 17.581 1.73826 18.0004 1.70913 18.5183C9.46107 18.5183 17.1826 18.5183 24.932 18.5183C24.9105 17.9991 24.6749 17.591 24.3822 17.2066C23.1267 15.5567 21.865 13.9106 20.6184 12.2532C20.46 12.0423 20.2991 11.9661 20.0356 11.9674C17.6362 11.9774 15.2367 11.9736 12.8373 11.9724C12.6852 11.9724 12.5307 11.9774 12.3812 11.9536C11.9568 11.8838 11.6806 11.5693 11.673 11.1686C11.6667 10.7505 11.9492 10.4223 12.3926 10.3512C12.5282 10.33 12.6688 10.3337 12.8069 10.3337C15.0403 10.3325 17.2726 10.3325 19.506 10.3325C19.653 10.3325 19.8012 10.3325 19.9545 10.3325C19.9545 9.75836 19.9545 9.23543 19.9545 8.70252C15.5281 8.70377 11.1333 8.70377 6.6689 8.70377ZM25.2754 28.5874C23.617 29.5459 21.9384 30.4245 20.3586 31.4516C18.4444 32.6972 17.773 35.1708 18.6382 37.2737C19.5073 39.3854 21.7256 40.6222 23.9933 40.2939C25.0004 40.1479 25.8353 39.6462 26.6866 39.162C27.8737 38.4868 29.0595 37.8104 30.2757 37.1177C28.6072 34.2734 26.9539 31.4516 25.2754 28.5874ZM13.306 7.05387C15.7207 7.05387 18.134 7.05512 20.5487 7.05387C21.3493 7.05387 21.6509 6.75684 21.6534 5.96309C21.6572 4.86982 21.6585 3.77654 21.6521 2.68327C21.6483 1.94818 21.3303 1.64241 20.5816 1.64241C15.7397 1.64116 10.8977 1.64116 6.05574 1.64241C5.29309 1.64241 5.00804 1.92946 5.00551 2.692C5.00171 3.78528 5.00298 4.87855 5.00551 5.97183C5.00804 6.77931 5.28675 7.05387 6.10642 7.05387C8.50586 7.05387 10.9053 7.05387 13.306 7.05387ZM31.7212 36.304C33.2059 35.4528 34.6654 34.6691 36.069 33.7967C38.3114 32.4039 38.9993 29.501 37.6805 27.2383C36.3528 24.9581 33.4403 24.0907 31.0839 25.3238C29.6422 26.0789 28.2462 26.9188 26.8298 27.7225C26.7994 27.74 26.7817 27.7812 26.75 27.8236C28.3994 30.6379 30.0464 33.4472 31.7212 36.304ZM1.71673 33.889C1.37467 36.0506 2.81637 37.1913 4.5279 37.1689C8.45138 37.1152 12.3774 37.1514 16.3021 37.1514C16.4668 37.1514 16.6315 37.1514 16.7025 37.1514C16.7025 36.0481 16.7025 34.9798 16.7025 33.889C11.7478 33.889 6.74618 33.889 1.71673 33.889Z" fill="black"/>
<path d="M14.1609 25.6695C14.9882 25.6695 15.7749 25.6582 16.5616 25.6732C17.2255 25.6857 17.6296 26.2036 17.4206 26.764C17.2723 27.1621 16.9404 27.3081 16.5325 27.3094C15.7584 27.3119 14.9857 27.3094 14.1609 27.3094C14.1609 28.037 14.1622 28.7284 14.1609 29.4198C14.1597 30.1848 13.8531 30.5992 13.302 30.583C12.7598 30.568 12.4963 30.1886 12.495 29.4223C12.4937 28.7409 12.495 28.0595 12.495 27.3094C12.1745 27.3094 11.8768 27.3094 11.5791 27.3094C11.1078 27.3094 10.6365 27.3131 10.1652 27.3081C9.5432 27.3006 9.17961 26.9986 9.17581 26.4957C9.17201 25.9902 9.53687 25.6757 10.1526 25.6707C10.9139 25.6645 11.6753 25.6695 12.4963 25.6695C12.4963 25.048 12.4963 24.4526 12.4963 23.8561C12.4963 23.6514 12.4899 23.4455 12.5013 23.242C12.5279 22.7478 12.8396 22.4183 13.2893 22.3971C13.7201 22.3772 14.1026 22.6942 14.1381 23.1784C14.1787 23.7213 14.1571 24.2704 14.1597 24.8158C14.1622 25.0866 14.1609 25.3562 14.1609 25.6695Z" fill="black"/>
<path d="M9.9831 11.1611C9.97804 11.5967 9.58911 11.9736 9.15204 11.9686C8.70737 11.9636 8.33998 11.5904 8.34378 11.1461C8.34758 10.7043 8.72384 10.3349 9.16724 10.3399C9.60811 10.3449 9.98817 10.728 9.9831 11.1611Z" fill="black"/>
</g>
<defs>
<clipPath id="clip0_400_15185">
<rect width="40" height="42" fill="white"/>
</clipPath>
</defs>
</svg>
